<svg id="visual" viewBox="0 0 960 150" xmlns="http://www.w3.org/2000/svg" xmlns:xlink="http://www.w3.org/1999/xlink" version="1.1"><path d="M0 74L42 74L42 53L83 53L83 10L125 10L125 118L167 118L167 136L209 136L209 136L250 136L250 41L292 41L292 45L334 45L334 74L376 74L376 121L417 121L417 1L459 1L459 86L501 86L501 112L543 112L543 59L584 59L584 99L626 99L626 49L668 49L668 95L710 95L710 1L751 1L751 25L793 25L793 14L835 14L835 7L877 7L877 73L918 73L918 24L960 24L960 80L960 151L960 151L918 151L918 151L877 151L877 151L835 151L835 151L793 151L793 151L751 151L751 151L710 151L710 151L668 151L668 151L626 151L626 151L584 151L584 151L543 151L543 151L501 151L501 151L459 151L459 151L417 151L417 151L376 151L376 151L334 151L334 151L292 151L292 151L250 151L250 151L209 151L209 151L167 151L167 151L125 151L125 151L83 151L83 151L42 151L42 151L0 151Z"></path></svg>