<svg id="visual" viewBox="0 0 960 150" xmlns="http://www.w3.org/2000/svg" xmlns:xlink="http://www.w3.org/1999/xlink" version="1.1"><path d="M0 138L42 138L42 77L83 77L83 44L125 44L125 75L167 75L167 21L209 21L209 48L250 48L250 71L292 71L292 43L334 43L334 130L376 130L376 14L417 14L417 37L459 37L459 37L501 37L501 134L543 134L543 76L584 76L584 81L626 81L626 121L668 121L668 88L710 88L710 13L751 13L751 117L793 117L793 29L835 29L835 46L877 46L877 48L918 48L918 116L960 116L960 31L960 0L960 0L918 0L918 0L877 0L877 0L835 0L835 0L793 0L793 0L751 0L751 0L710 0L710 0L668 0L668 0L626 0L626 0L584 0L584 0L543 0L543 0L501 0L501 0L459 0L459 0L417 0L417 0L376 0L376 0L334 0L334 0L292 0L292 0L250 0L250 0L209 0L209 0L167 0L167 0L125 0L125 0L83 0L83 0L42 0L42 0L0 0Z"></path></svg>