<?xml version="1.0" encoding="UTF-8" standalone="no"?>
<!-- Created with Inkscape (http://www.inkscape.org/) -->

<svg
   viewBox="0 0 298.1163 496.22955"
   version="1.1"
   id="svg5"
   inkscape:version="1.1.2 (0a00cf5339, 2022-02-04, custom)"
   sodipodi:docname="logoFadhil.svg"
   xmlns:inkscape="http://www.inkscape.org/namespaces/inkscape"
   xmlns:sodipodi="http://sodipodi.sourceforge.net/DTD/sodipodi-0.dtd"
   xmlns="http://www.w3.org/2000/svg"
   xmlns:svg="http://www.w3.org/2000/svg">
  <sodipodi:namedview
     id="namedview7"
     pagecolor="#505050"
     bordercolor="#eeeeee"
     borderopacity="1"
     inkscape:pageshadow="0"
     inkscape:pageopacity="0"
     inkscape:pagecheckerboard="0"
     inkscape:document-units="px"
     showgrid="false"
     inkscape:zoom="1.3320312"
     inkscape:cx="17.642229"
     inkscape:cy="264.63344"
     inkscape:window-width="1900"
     inkscape:window-height="1015"
     inkscape:window-x="8"
     inkscape:window-y="53"
     inkscape:window-maximized="1"
     inkscape:current-layer="layer1"
     fit-margin-top="0"
     fit-margin-left="0"
     fit-margin-right="0"
     fit-margin-bottom="0" />
  <defs
     id="defs2" />
  <g
     inkscape:label="Layer 1"
     inkscape:groupmode="layer"
     id="layer1"
     transform="translate(-106.94185,-7.885217)">
    <g
       id="g130"
       transform="translate(4.7744236,-2.041994)">
      <path
         id="rect31"
         style="fill:#5e81ac;stroke:#5e81ac;stroke-width:0.942454"
         d="m 152.16797,10.398438 c -27.439,-1e-6 -49.5293,22.090296 -49.5293,49.529296 v 49.529296 h 99.0586 V 10.398438 Z" />
      <rect
         style="fill:#5e81ac;stroke:#5e81ac;stroke-width:0.942454"
         id="rect31-3"
         width="99.057549"
         height="99.057549"
         x="102.63911"
         y="109.45631" />
      <rect
         style="fill:#81a1c1;stroke:#81a1c1;stroke-width:0.942454"
         id="rect31-3-6"
         width="99.057549"
         height="99.057549"
         x="102.63911"
         y="208.51385" />
      <path
         id="rect31-3-6-7"
         style="fill:#81a1c1;stroke:#81a1c1;stroke-width:0.942454"
         d="m 102.63867,307.57227 c 10e-4,27.43809 22.09095,49.52734 49.5293,49.52734 -27.439,0 -49.5293,22.0903 -49.5293,49.5293 h 99.0586 v -99.05664 z" />
      <path
         id="rect31-3-6-7-5"
         style="fill:#81a1c1;stroke:#81a1c1;stroke-width:0.942454"
         d="m 102.63867,406.62891 v 99.05664 h 49.5293 c 27.439,0 49.5293,-22.0903 49.5293,-49.5293 v -49.52734 z" />
      <rect
         style="fill:#81a1c1;stroke:#81a1c1;stroke-width:0.942454"
         id="rect31-3-6-7-5-3"
         width="99.057549"
         height="99.057549"
         x="201.69666"
         y="208.51385" />
      <path
         id="rect31-3-6-7-5-3-5"
         style="fill:#81a1c1;stroke:#81a1c1;stroke-width:0.942454"
         d="m 300.75391,208.51367 v 99.0586 h 49.52929 c 27.439,0 49.5293,-22.0903 49.5293,-49.5293 v -49.5293 z" />
      <rect
         style="fill:#5e81ac;stroke:#5e81ac;stroke-width:0.942454"
         id="rect31-3-6-7-5-3-5-6"
         width="99.057549"
         height="99.057549"
         x="201.69667"
         y="10.398762" />
      <path
         id="rect31-3-6-7-5-3-5-6-2"
         style="fill:#5e81ac;stroke:#5e81ac;stroke-width:0.942454"
         d="m 300.75391,10.398438 v 99.058592 h 49.52929 c 27.439,0 49.5293,-22.090296 49.5293,-49.529296 h -49.5293 c 27.439,0 49.5293,-22.090296 49.5293,-49.529296 z" />
      <path
         id="rect31-3-6-7-5-3-5-6-2-9-1"
         style="fill:#8fbcbb;stroke:#8fbcbb;stroke-width:0.942454"
         d="m 350.2832,406.62891 c -27.43894,0 -49.52929,22.09035 -49.52929,49.52929 v 49.52735 h 49.52929 c 27.43829,0 49.52825,-22.08932 49.5293,-49.52735 0,-6.5e-4 0,-0.001 0,-0.002 -10e-4,-27.43803 -22.09101,-49.52734 -49.5293,-49.52734 z" />
      <path
         id="rect31-3-6-7-5-3-5-6-2-9-1-2-8"
         style="fill:#8fbcbb;stroke:#8fbcbb;stroke-width:0.471228"
         d="M 152.16797,109.45722 V 59.92783 c 0,27.439 -22.09039,49.52939 -49.52939,49.52939 z" />
      <path
         id="rect31-3-6-7-5-3-5-6-2-9-1-2-8-7"
         style="fill:#5e81ac;stroke:#5e81ac;stroke-width:0.471228"
         d="m 350.28311,258.04306 v 49.52939 c 0,-27.439 22.09039,-49.52939 49.52939,-49.52939 z" />
      <path
         id="rect31-3-6-7-5-3-5-6-2-9-1-2-8-7-7"
         style="fill:#5e81ac;stroke:#5e81ac;stroke-width:0.471228"
         d="m 350.28311,258.04306 h -49.52939 c 27.439,0 49.52939,22.09039 49.52939,49.52939 z" />
      <path
         id="rect31-3-6-7-5-3-5-6-2-9-1-2-8-7-7-4"
         style="fill:#5e81ac;stroke:#5e81ac;stroke-width:0.471228"
         d="m 350.28311,258.04306 v -49.52939 c 0,27.439 -22.09039,49.52939 -49.52939,49.52939 z" />
      <path
         id="rect31-3-6-7-5-3-5-6-2-9-1-2-8-7-7-4-5"
         style="fill:#5e81ac;stroke:#5e81ac;stroke-width:0.471228"
         d="m 350.28311,258.04306 h 49.52939 c -27.439,0 -49.52939,-22.09039 -49.52939,-49.52939 z" />
      <path
         id="rect31-3-6-7-5-3-5-6-2-9-1-2-8-7-7-4-2"
         style="fill:#5e81ac;stroke:#5e81ac;stroke-width:0.471228"
         d="m 300.75421,208.51385 h -49.52939 c 27.439,0 49.52939,22.09039 49.52939,49.52939 z" />
      <path
         id="rect31-3-6-7-5-3-5-6-2-9-1-2-8-7-7-4-2-4"
         style="fill:#5e81ac;stroke:#5e81ac;stroke-width:0.471228"
         d="m 300.75421,208.51385 v 49.52939 c 0,-27.439 22.09039,-49.52939 49.52939,-49.52939 z" />
      <path
         id="rect31-3-6-7-5-3-5-6-2-9-1-2-8-7-7-4-2-44"
         style="fill:#5e81ac;stroke:#5e81ac;stroke-width:0.471228"
         d="m 300.75421,307.57141 h -49.52939 c 27.439,0 49.52939,-22.09039 49.52939,-49.52939 z" />
      <path
         id="rect31-3-6-7-5-3-5-6-2-9-1-2-8-7-7-4-2-4-3"
         style="fill:#5e81ac;stroke:#5e81ac;stroke-width:0.471228"
         d="m 300.75421,307.57141 v -49.52939 c 0,27.439 22.09039,49.52939 49.52939,49.52939 z" />
      <path
         id="rect31-3-6-7-5-3-5-6-2-9-1-2-8-7-7-4-2-4-7"
         style="fill:#81a1c1;stroke:#81a1c1;stroke-width:0.471228"
         d="m 350.2833,505.68555 v -49.52939 c 0,27.439 -22.09039,49.52939 -49.52939,49.52939 z" />
      <path
         id="rect31-3-6-7-5-3-5-6-2-9-1-2-8-7-7-4-2-4-7-4"
         style="fill:#5e81ac;stroke:#5e81ac;stroke-width:0.471228"
         d="m 251.22482,258.04324 v 49.52939 c 0,-27.439 22.09039,-49.52939 49.52939,-49.52939 z" />
      <path
         id="rect31-3-6-7-5-3-5-6-2-9-1-2-8-7-7-4-2-4-7-88"
         style="fill:#5e81ac;stroke:#5e81ac;stroke-width:0.471228"
         d="m 251.22482,258.04202 h 49.52939 c -27.439,0 -49.52939,-22.09039 -49.52939,-49.52939 z" />
      <path
         id="rect31-3-6-7-5-3-5-6-2-9-1-2-8-7-7-4-2-4-7-8"
         style="fill:#5e81ac;stroke:#5e81ac;stroke-width:0.471228"
         d="m 251.22482,307.57141 v -49.52939 c 0,27.439 -22.09039,49.52939 -49.52939,49.52939 z" />
      <path
         id="rect31-3-6-7-5-3-5-6-2-9-1-2-8-7-7-4-2-4-7-8-6"
         style="fill:#5e81ac;stroke:#5e81ac;stroke-width:0.471228"
         d="m 251.22482,208.51385 h -49.52939 c 27.439,0 49.52939,22.09039 49.52939,49.52939 z" />
      <path
         id="rect31-3-6-7-5-3-5-6-2-9-1-2-8-7-7-4-2-5"
         style="fill:#5e81ac;stroke:#5e81ac;stroke-width:0.471228"
         d="m 399.8125,208.51367 h -49.52939 c 27.439,0 49.52939,22.09039 49.52939,49.52939 z" />
      <path
         id="rect31-3-6-7-5-3-5-6-2-9-1-2-8-7-3"
         style="fill:#8fbcbb;stroke:#8fbcbb;stroke-width:0.471228"
         d="m 201.69736,109.45722 v 49.52939 c 0,-27.439 22.09039,-49.52939 49.52939,-49.52939 z" />
      <path
         id="rect31-3-6-7-5-3-5-6-2-9-1-2-8-7-47"
         style="fill:#5e81ac;stroke:#5e81ac;stroke-width:0.471228"
         d="m 102.63867,456.15616 v 49.52939 c 0,-27.439 22.09039,-49.52939 49.52939,-49.52939 z" />
      <path
         id="rect31-3-6-7-5-3-5-6-2-9-1-2-8-7-0"
         style="fill:#5e81ac;stroke:#5e81ac;stroke-width:0.471228"
         d="m 152.16806,456.15616 v 49.52939 c 0,-27.439 22.09039,-49.52939 49.52939,-49.52939 z" />
      <path
         id="rect31-3-6-7-5-3-5-6-2-9-1-2-8-7-0-6"
         style="fill:#5e81ac;stroke:#5e81ac;stroke-width:0.471228"
         d="m 152.16806,505.68555 v -49.52939 c 0,27.439 -22.09039,49.52939 -49.52939,49.52939 z" />
      <path
         id="rect31-3-6-7-5-3-5-6-2-9-1-2-8-7-0-6-3"
         style="fill:#5e81ac;stroke:#5e81ac;stroke-width:0.471228"
         d="m 201.69745,456.15616 v -49.52939 c 0,27.439 -22.09039,49.52939 -49.52939,49.52939 z" />
      <path
         id="rect31-3-6-7-5-3-5-6-2-9-1-2-8-7-0-2"
         style="fill:#5e81ac;stroke:#5e81ac;stroke-width:0.471228"
         d="m 152.16806,406.62677 v 49.52939 c 0,-27.439 22.09039,-49.52939 49.52939,-49.52939 z" />
      <path
         id="rect31-3-6-7-5-3-5-6-2-9-1-2-8-7-0-6-0"
         style="fill:#5e81ac;stroke:#5e81ac;stroke-width:0.471228"
         d="m 152.16806,456.15616 v -49.52939 c 0,27.439 -22.09039,49.52939 -49.52939,49.52939 z" />
      <path
         id="rect31-3-6-7-5-3-5-6-2-9-1-2-8-7-0-6-3-6"
         style="fill:#5e81ac;stroke:#5e81ac;stroke-width:0.471228"
         d="m 201.69745,406.62677 v -49.52939 c 0,27.439 -22.09039,49.52939 -49.52939,49.52939 z" />
      <path
         id="rect31-3-6-7-5-3-5-6-2-9-1-2-8-7-0-2-1"
         style="fill:#5e81ac;stroke:#5e81ac;stroke-width:0.471228"
         d="M 152.16797,357.09961 V 406.629 c 0,-27.439 22.09039,-49.52939 49.52939,-49.52939 z" />
      <path
         id="rect31-3-6-7-5-3-5-6-2-9-1-2-8-7-0-6-0-5"
         style="fill:#5e81ac;stroke:#5e81ac;stroke-width:0.471228"
         d="m 152.16797,406.629 v -49.52939 c 0,27.439 -22.09039,49.52939 -49.52939,49.52939 z" />
      <path
         id="rect31-3-6-7-5-3-5-6-2-9-1-2-8-7-0-6-3-6-5"
         style="fill:#5e81ac;stroke:#5e81ac;stroke-width:0.471228"
         d="m 201.69736,357.09961 v -49.52939 c 0,27.439 -22.09039,49.52939 -49.52939,49.52939 z" />
      <path
         id="rect31-3-6-7-5-3-5-6-2-9-1-2-8-7-4"
         style="fill:#8fbcbb;stroke:#8fbcbb;stroke-width:0.471228"
         d="M 251.22675,109.45722 V 59.92783 c 0,27.439 -22.09039,49.52939 -49.52939,49.52939 z" />
      <path
         id="rect31-3-6-7-5-3-5-6-2-9-1-2-8-7-4-7"
         style="fill:#8fbcbb;stroke:#8fbcbb;stroke-width:0.471228"
         d="m 201.69735,158.98661 v -49.52939 c 0,27.439 -22.09038,49.52939 -49.52938,49.52939 z" />
      <path
         id="rect31-3-6-7-5-3-5-6-2-9-1-2-8-7-4-7-8"
         style="fill:#8fbcbb;stroke:#8fbcbb;stroke-width:0.471228"
         d="m 152.16796,158.98661 v -49.52939 c 0,27.439 -22.09038,49.52939 -49.52938,49.52939 z" />
      <path
         id="rect31-3-6-7-5-3-5-6-2-9-1-2-8-7-4-7-8-4"
         style="fill:#8fbcbb;stroke:#8fbcbb;stroke-width:0.471228"
         d="m 102.63911,208.51385 h 49.52939 c -27.439,0 -49.52939,-22.09038 -49.52939,-49.52938 z" />
      <path
         id="rect31-3-6-7-5-3-5-6-2-9-1-2-8-7-4-7-8-4-5"
         style="fill:#8fbcbb;stroke:#8fbcbb;stroke-width:0.471228"
         d="m 201.69666,208.51385 v -49.52939 c 0,27.439 -22.09038,49.52939 -49.52938,49.52939 z" />
      <path
         id="rect31-3-6-7-5-3-5-6-2-9-1-2-8-7-4-7-8-4-5-0"
         style="fill:#8fbcbb;stroke:#8fbcbb;stroke-width:0.471228"
         d="m 152.16797,158.98661 h -49.52939 c 27.43901,0 49.52939,22.09038 49.52939,49.52938 z" />
      <path
         id="rect31-3-6-7-5-3-5-6-2-9-1-2-8-7-4-7-8-4-5-0-3"
         style="fill:#8fbcbb;stroke:#8fbcbb;stroke-width:0.471228"
         d="M 152.16797,158.98661 V 208.516 c 0,-27.43901 22.09038,-49.52939 49.52938,-49.52939 z" />
      <path
         id="rect31-3-6-7-5-3-5-6-2-9-1-2-8-7-4-7-8-4-5-0-3-6"
         style="fill:#8fbcbb;stroke:#8fbcbb;stroke-width:0.471228"
         d="m 152.16797,208.516 v 49.52939 c 0,-27.43901 22.09038,-49.52939 49.52938,-49.52939 z" />
      <path
         id="rect31-3-6-7-5-3-5-6-2-9-1-2-8-7-4-7-8-4-5-0-3-6-1"
         style="fill:#8fbcbb;stroke:#8fbcbb;stroke-width:0.471228"
         d="m 152.16797,208.516 h -49.52939 c 27.439,0 49.52939,22.09038 49.52939,49.52938 z" />
      <path
         id="rect31-3-6-7-5-3-5-6-2-9-1-2-8-7-5"
         style="fill:#8fbcbb;stroke:#8fbcbb;stroke-width:0.471228"
         d="m 102.63858,109.45722 v 49.52939 c 0,-27.439 22.09039,-49.52939 49.52939,-49.52939 z" />
      <path
         id="rect31-3-6-7-5-3-5-6-2-9-1-2-8-1"
         style="fill:#8fbcbb;stroke:#8fbcbb;stroke-width:0.471228"
         d="M 201.69736,109.45722 V 59.92783 c 0,27.439 -22.09039,49.52939 -49.52939,49.52939 z" />
      <path
         id="rect31-3-6-7-5-3-5-6-2-9-1-2-8-7-5-9"
         style="fill:#8fbcbb;stroke:#8fbcbb;stroke-width:0.471228"
         d="m 152.16797,109.45722 v 49.52939 c 0,-27.439 22.09039,-49.52939 49.52939,-49.52939 z" />
      <path
         id="rect31-3-6-7-5-3-5-6-2-9-1-2-8-9"
         style="fill:#8fbcbb;stroke:#8fbcbb;stroke-width:0.471228"
         d="m 152.16797,59.927828 v -49.52939 c 0,27.439 -22.09039,49.52939 -49.52939,49.52939 z" />
      <path
         id="rect31-3-6-7-5-3-5-6-2-9-1-2-8-7-5-2"
         style="fill:#8fbcbb;stroke:#8fbcbb;stroke-width:0.471228"
         d="m 102.63858,59.927828 v 49.529392 c 0,-27.439002 22.09039,-49.529392 49.52939,-49.529392 z" />
      <path
         id="rect31-3-6-7-5-3-5-6-2-9-1-2-8-3-2"
         style="fill:#8fbcbb;stroke:#8fbcbb;stroke-width:0.471228"
         d="m 152.16797,10.398438 v 49.52939 c 0,-27.439 22.09039,-49.52939 49.52939,-49.52939 z" />
      <path
         id="rect31-3-6-7-5-3-5-6-2-9-1-2-8-9-8"
         style="fill:#8fbcbb;stroke:#8fbcbb;stroke-width:0.471228"
         d="m 201.69736,59.927828 v -49.52939 c 0,27.439 -22.09039,49.52939 -49.52939,49.52939 z" />
      <path
         id="rect31-3-6-7-5-3-5-6-2-9-1-2-8-7-5-2-9"
         style="fill:#8fbcbb;stroke:#8fbcbb;stroke-width:0.471228"
         d="m 152.16797,59.927828 v 49.529392 c 0,-27.439002 22.09039,-49.529392 49.52939,-49.529392 z" />
      <path
         id="rect31-3-6-7-5-3-5-6-2-9-1-2-8-3-2-7"
         style="fill:#8fbcbb;stroke:#8fbcbb;stroke-width:0.471228"
         d="m 201.69736,10.398438 v 49.52939 c 0,-27.439 22.09039,-49.52939 49.52939,-49.52939 z" />
      <path
         id="rect31-3-6-7-5-3-5-6-2-9-1-2-8-9-8-3"
         style="fill:#8fbcbb;stroke:#8fbcbb;stroke-width:0.471228"
         d="m 251.22675,59.927828 v -49.52939 c 0,27.439 -22.09039,49.52939 -49.52939,49.52939 z" />
      <path
         id="rect31-3-6-7-5-3-5-6-2-9-1-2-8-7-5-2-9-6"
         style="fill:#8fbcbb;stroke:#8fbcbb;stroke-width:0.471228"
         d="m 201.69736,59.927828 v 49.529392 c 0,-27.439004 22.09039,-49.529392 49.52939,-49.529392 z" />
      <path
         id="rect31-3-6-7-5-3-5-6-2-9-1-2-8-3-2-7-1"
         style="fill:#8fbcbb;stroke:#8fbcbb;stroke-width:0.471228"
         d="m 251.22675,10.398438 v 49.52939 c 0,-27.439 22.09039,-49.52939 49.52939,-49.52939 z" />
      <path
         id="rect31-3-6-7-5-3-5-6-2-9-1-2-8-9-8-3-2"
         style="fill:#8fbcbb;stroke:#8fbcbb;stroke-width:0.471228"
         d="m 300.75614,59.927828 v -49.52939 c 0,27.439 -22.09039,49.52939 -49.52939,49.52939 z" />
      <path
         id="rect31-3-6-7-5-3-5-6-2-9-1-2-8-7-5-2-9-6-9"
         style="fill:#8fbcbb;stroke:#8fbcbb;stroke-width:0.471228"
         d="m 251.22675,59.927828 v 49.529392 c 0,-27.439008 22.09039,-49.529392 49.52939,-49.529392 z" />
      <path
         id="rect31-3-6-7-5-3-5-6-2-9-1-2-8-3-2-7-1-3"
         style="fill:#8fbcbb;stroke:#8fbcbb;stroke-width:0.471228"
         d="m 300.75614,10.398438 v 49.52939 c 0,-27.439 22.09039,-49.52939 49.52939,-49.52939 z" />
      <path
         id="rect31-3-6-7-5-3-5-6-2-9-1-2-8-7-0-6-0-56"
         style="fill:#5e81ac;stroke:#5e81ac;stroke-width:0.471228"
         d="m 102.63867,406.62677 v 49.52939 c 0,-27.439 22.09039,-49.52939 49.52939,-49.52939 z" />
      <path
         id="rect31-3-6-7-5-3-5-6-2-9-1-2-8-7-0-6-0-56-9"
         style="fill:#5e81ac;stroke:#5e81ac;stroke-width:0.471228"
         d="m 201.69727,307.57227 v 49.52939 c 0,-27.439 22.09039,-49.52939 49.52939,-49.52939 z" />
    </g>
  </g>
</svg>
