<svg id="visual" viewBox="0 0 900 600" xmlns="http://www.w3.org/2000/svg" xmlns:xlink="http://www.w3.org/1999/xlink" version="1.1"><g fill="#EBCB8B"><path d="M0 -111.4L25 -34.4L105.9 -34.4L40.5 13.1L65.5 90.1L0 42.5L-65.5 90.1L-40.5 13.1L-105.9 -34.4L-25 -34.4Z" transform="translate(895 252)"></path><path d="M0 -49.1L11 -15.2L46.7 -15.2L17.8 5.8L28.8 39.7L0 18.7L-28.8 39.7L-17.8 5.8L-46.7 -15.2L-11 -15.2Z" transform="translate(334 406)"></path><path d="M0 -102.9L23.1 -31.8L97.8 -31.8L37.4 12.1L60.5 83.2L0 39.3L-60.5 83.2L-37.4 12.1L-97.8 -31.8L-23.1 -31.8Z" transform="translate(96 384)"></path><path d="M0 -90.6L20.3 -28L86.2 -28L32.9 10.7L53.3 73.3L0 34.6L-53.3 73.3L-32.9 10.7L-86.2 -28L-20.3 -28Z" transform="translate(632 504)"></path><path d="M0 -91.6L20.6 -28.3L87.1 -28.3L33.3 10.8L53.8 74.1L0 35L-53.8 74.1L-33.3 10.8L-87.1 -28.3L-20.6 -28.3Z" transform="translate(412 2)"></path></g></svg>