<?xml version="1.0" encoding="UTF-8" standalone="no"?>
<!-- Created with Inkscape (http://www.inkscape.org/) -->

<svg
   width="512"
   height="512"
   viewBox="0 0 512 512"
   version="1.1"
   id="svg5"
   inkscape:version="1.1.2 (0a00cf5339, 2022-02-04, custom)"
   sodipodi:docname="logoFadhil.svg"
   xmlns:inkscape="http://www.inkscape.org/namespaces/inkscape"
   xmlns:sodipodi="http://sodipodi.sourceforge.net/DTD/sodipodi-0.dtd"
   xmlns="http://www.w3.org/2000/svg"
   xmlns:svg="http://www.w3.org/2000/svg">
  <sodipodi:namedview
     id="namedview7"
     pagecolor="#505050"
     bordercolor="#eeeeee"
     borderopacity="1"
     inkscape:pageshadow="0"
     inkscape:pageopacity="0"
     inkscape:pagecheckerboard="0"
     inkscape:document-units="px"
     showgrid="false"
     inkscape:zoom="1.3320312"
     inkscape:cx="267.63636"
     inkscape:cy="212.83284"
     inkscape:window-width="944"
     inkscape:window-height="1015"
     inkscape:window-x="8"
     inkscape:window-y="53"
     inkscape:window-maximized="1"
     inkscape:current-layer="layer1" />
  <defs
     id="defs2" />
  <g
     inkscape:label="Layer 1"
     inkscape:groupmode="layer"
     id="layer1">
    <path
       id="rect31"
       style="fill:#5e81ac;stroke:#5e81ac;stroke-width:0.942454"
       d="M 152.16797 10.398438 C 124.72897 10.398437 102.63867 32.488734 102.63867 59.927734 L 102.63867 109.45703 L 201.69727 109.45703 L 201.69727 10.398438 L 152.16797 10.398438 z " />
    <rect
       style="fill:#5e81ac;stroke:#5e81ac;stroke-width:0.942454"
       id="rect31-3"
       width="99.057549"
       height="99.057549"
       x="102.63911"
       y="109.45631" />
    <rect
       style="fill:#81a1c1;stroke:#81a1c1;stroke-width:0.942454"
       id="rect31-3-6"
       width="99.057549"
       height="99.057549"
       x="102.63911"
       y="208.51385" />
    <path
       id="rect31-3-6-7"
       style="fill:#81a1c1;stroke:#81a1c1;stroke-width:0.942454"
       d="M 102.63867 307.57227 C 102.63973 335.01036 124.72962 357.09961 152.16797 357.09961 C 124.72897 357.09961 102.63867 379.18991 102.63867 406.62891 L 201.69727 406.62891 L 201.69727 307.57227 L 102.63867 307.57227 z " />
    <path
       id="rect31-3-6-7-5"
       style="fill:#81a1c1;stroke:#81a1c1;stroke-width:0.942454"
       d="M 102.63867 406.62891 L 102.63867 505.68555 L 152.16797 505.68555 C 179.60697 505.68555 201.69727 483.59525 201.69727 456.15625 L 201.69727 406.62891 L 102.63867 406.62891 z " />
    <rect
       style="fill:#81a1c1;stroke:#81a1c1;stroke-width:0.942454"
       id="rect31-3-6-7-5-3"
       width="99.057549"
       height="99.057549"
       x="201.69666"
       y="208.51385" />
    <path
       id="rect31-3-6-7-5-3-5"
       style="fill:#81a1c1;stroke:#81a1c1;stroke-width:0.942454"
       d="M 300.75391 208.51367 L 300.75391 307.57227 L 350.2832 307.57227 C 377.7222 307.57227 399.8125 285.48197 399.8125 258.04297 L 399.8125 208.51367 L 300.75391 208.51367 z " />
    <rect
       style="fill:#5e81ac;stroke:#5e81ac;stroke-width:0.942454"
       id="rect31-3-6-7-5-3-5-6"
       width="99.057549"
       height="99.057549"
       x="201.69667"
       y="10.398762" />
    <path
       id="rect31-3-6-7-5-3-5-6-2"
       style="fill:#5e81ac;stroke:#5e81ac;stroke-width:0.942454"
       d="M 300.75391 10.398438 L 300.75391 109.45703 L 350.2832 109.45703 C 377.7222 109.45703 399.8125 87.366734 399.8125 59.927734 L 350.2832 59.927734 C 377.7222 59.927734 399.8125 37.837438 399.8125 10.398438 L 300.75391 10.398438 z " />
    <path
       id="rect31-3-6-7-5-3-5-6-2-9-1"
       style="fill:#8fbcbb;stroke:#8fbcbb;stroke-width:0.942454"
       d="M 350.2832 406.62891 C 322.84426 406.62891 300.75391 428.71926 300.75391 456.1582 L 300.75391 505.68555 L 350.2832 505.68555 C 377.72149 505.68555 399.81145 483.59623 399.8125 456.1582 C 399.8125 456.15755 399.8125 456.1569 399.8125 456.15625 C 399.81145 428.71822 377.72149 406.62891 350.2832 406.62891 z " />
    <path
       id="rect31-3-6-7-5-3-5-6-2-9-1-2-8"
       style="fill:#8fbcbb;stroke:#8fbcbb;stroke-width:0.471228"
       d="M 152.16797,109.45722 V 59.92783 c 0,27.439 -22.09039,49.52939 -49.52939,49.52939 z" />
    <path
       id="rect31-3-6-7-5-3-5-6-2-9-1-2-8-7"
       style="fill:#5e81ac;stroke:#5e81ac;stroke-width:0.471228"
       d="m 350.28311,258.04306 v 49.52939 c 0,-27.439 22.09039,-49.52939 49.52939,-49.52939 z" />
    <path
       id="rect31-3-6-7-5-3-5-6-2-9-1-2-8-7-7"
       style="fill:#5e81ac;stroke:#5e81ac;stroke-width:0.471228"
       d="m 350.28311,258.04306 h -49.52939 c 27.439,0 49.52939,22.09039 49.52939,49.52939 z" />
    <path
       id="rect31-3-6-7-5-3-5-6-2-9-1-2-8-7-7-4"
       style="fill:#5e81ac;stroke:#5e81ac;stroke-width:0.471228"
       d="m 350.28311,258.04306 v -49.52939 c 0,27.439 -22.09039,49.52939 -49.52939,49.52939 z" />
    <path
       id="rect31-3-6-7-5-3-5-6-2-9-1-2-8-7-7-4-5"
       style="fill:#5e81ac;stroke:#5e81ac;stroke-width:0.471228"
       d="m 350.28311,258.04306 h 49.52939 c -27.439,0 -49.52939,-22.09039 -49.52939,-49.52939 z" />
    <path
       id="rect31-3-6-7-5-3-5-6-2-9-1-2-8-7-7-4-2"
       style="fill:#5e81ac;stroke:#5e81ac;stroke-width:0.471228"
       d="m 300.75421,208.51385 h -49.52939 c 27.439,0 49.52939,22.09039 49.52939,49.52939 z" />
    <path
       id="rect31-3-6-7-5-3-5-6-2-9-1-2-8-7-7-4-2-4"
       style="fill:#5e81ac;stroke:#5e81ac;stroke-width:0.471228"
       d="m 300.75421,208.51385 v 49.52939 c 0,-27.439 22.09039,-49.52939 49.52939,-49.52939 z" />
    <path
       id="rect31-3-6-7-5-3-5-6-2-9-1-2-8-7-7-4-2-44"
       style="fill:#5e81ac;stroke:#5e81ac;stroke-width:0.471228"
       d="m 300.75421,307.57141 h -49.52939 c 27.439,0 49.52939,-22.09039 49.52939,-49.52939 z" />
    <path
       id="rect31-3-6-7-5-3-5-6-2-9-1-2-8-7-7-4-2-4-3"
       style="fill:#5e81ac;stroke:#5e81ac;stroke-width:0.471228"
       d="m 300.75421,307.57141 v -49.52939 c 0,27.439 22.09039,49.52939 49.52939,49.52939 z" />
    <path
       id="rect31-3-6-7-5-3-5-6-2-9-1-2-8-7-7-4-2-4-7"
       style="fill:#81a1c1;stroke:#81a1c1;stroke-width:0.471228"
       d="m 350.2833,505.68555 v -49.52939 c 0,27.439 -22.09039,49.52939 -49.52939,49.52939 z" />
    <path
       id="rect31-3-6-7-5-3-5-6-2-9-1-2-8-7-7-4-2-4-7-4"
       style="fill:#5e81ac;stroke:#5e81ac;stroke-width:0.471228"
       d="m 251.22482,258.04324 v 49.52939 c 0,-27.439 22.09039,-49.52939 49.52939,-49.52939 z" />
    <path
       id="rect31-3-6-7-5-3-5-6-2-9-1-2-8-7-7-4-2-4-7-88"
       style="fill:#5e81ac;stroke:#5e81ac;stroke-width:0.471228"
       d="m 251.22482,258.04202 h 49.52939 c -27.439,0 -49.52939,-22.09039 -49.52939,-49.52939 z" />
    <path
       id="rect31-3-6-7-5-3-5-6-2-9-1-2-8-7-7-4-2-4-7-8"
       style="fill:#5e81ac;stroke:#5e81ac;stroke-width:0.471228"
       d="m 251.22482,307.57141 v -49.52939 c 0,27.439 -22.09039,49.52939 -49.52939,49.52939 z" />
    <path
       id="rect31-3-6-7-5-3-5-6-2-9-1-2-8-7-7-4-2-4-7-8-6"
       style="fill:#5e81ac;stroke:#5e81ac;stroke-width:0.471228"
       d="m 251.22482,208.51385 h -49.52939 c 27.439,0 49.52939,22.09039 49.52939,49.52939 z" />
    <path
       id="rect31-3-6-7-5-3-5-6-2-9-1-2-8-7-7-4-2-5"
       style="fill:#5e81ac;stroke:#5e81ac;stroke-width:0.471228"
       d="m 399.8125,208.51367 h -49.52939 c 27.439,0 49.52939,22.09039 49.52939,49.52939 z" />
    <path
       id="rect31-3-6-7-5-3-5-6-2-9-1-2-8-7-3"
       style="fill:#8fbcbb;stroke:#8fbcbb;stroke-width:0.471228"
       d="m 201.69736,109.45722 v 49.52939 c 0,-27.439 22.09039,-49.52939 49.52939,-49.52939 z" />
    <path
       id="rect31-3-6-7-5-3-5-6-2-9-1-2-8-7-47"
       style="fill:#5e81ac;stroke:#5e81ac;stroke-width:0.471228"
       d="m 102.63867,456.15616 v 49.52939 c 0,-27.439 22.09039,-49.52939 49.52939,-49.52939 z" />
    <path
       id="rect31-3-6-7-5-3-5-6-2-9-1-2-8-7-0"
       style="fill:#5e81ac;stroke:#5e81ac;stroke-width:0.471228"
       d="m 152.16806,456.15616 v 49.52939 c 0,-27.439 22.09039,-49.52939 49.52939,-49.52939 z" />
    <path
       id="rect31-3-6-7-5-3-5-6-2-9-1-2-8-7-0-6"
       style="fill:#5e81ac;stroke:#5e81ac;stroke-width:0.471228"
       d="m 152.16806,505.68555 v -49.52939 c 0,27.439 -22.09039,49.52939 -49.52939,49.52939 z" />
    <path
       id="rect31-3-6-7-5-3-5-6-2-9-1-2-8-7-0-6-3"
       style="fill:#5e81ac;stroke:#5e81ac;stroke-width:0.471228"
       d="m 201.69745,456.15616 v -49.52939 c 0,27.439 -22.09039,49.52939 -49.52939,49.52939 z" />
    <path
       id="rect31-3-6-7-5-3-5-6-2-9-1-2-8-7-0-2"
       style="fill:#5e81ac;stroke:#5e81ac;stroke-width:0.471228"
       d="m 152.16806,406.62677 v 49.52939 c 0,-27.439 22.09039,-49.52939 49.52939,-49.52939 z" />
    <path
       id="rect31-3-6-7-5-3-5-6-2-9-1-2-8-7-0-6-0"
       style="fill:#5e81ac;stroke:#5e81ac;stroke-width:0.471228"
       d="m 152.16806,456.15616 v -49.52939 c 0,27.439 -22.09039,49.52939 -49.52939,49.52939 z" />
    <path
       id="rect31-3-6-7-5-3-5-6-2-9-1-2-8-7-0-6-3-6"
       style="fill:#5e81ac;stroke:#5e81ac;stroke-width:0.471228"
       d="m 201.69745,406.62677 v -49.52939 c 0,27.439 -22.09039,49.52939 -49.52939,49.52939 z" />
    <path
       id="rect31-3-6-7-5-3-5-6-2-9-1-2-8-7-0-2-1"
       style="fill:#5e81ac;stroke:#5e81ac;stroke-width:0.471228"
       d="M 152.16797,357.09961 V 406.629 c 0,-27.439 22.09039,-49.52939 49.52939,-49.52939 z" />
    <path
       id="rect31-3-6-7-5-3-5-6-2-9-1-2-8-7-0-6-0-5"
       style="fill:#5e81ac;stroke:#5e81ac;stroke-width:0.471228"
       d="m 152.16797,406.629 v -49.52939 c 0,27.439 -22.09039,49.52939 -49.52939,49.52939 z" />
    <path
       id="rect31-3-6-7-5-3-5-6-2-9-1-2-8-7-0-6-3-6-5"
       style="fill:#5e81ac;stroke:#5e81ac;stroke-width:0.471228"
       d="m 201.69736,357.09961 v -49.52939 c 0,27.439 -22.09039,49.52939 -49.52939,49.52939 z" />
    <path
       id="rect31-3-6-7-5-3-5-6-2-9-1-2-8-7-4"
       style="fill:#8fbcbb;stroke:#8fbcbb;stroke-width:0.471228"
       d="M 251.22675,109.45722 V 59.92783 c 0,27.439 -22.09039,49.52939 -49.52939,49.52939 z" />
    <path
       id="rect31-3-6-7-5-3-5-6-2-9-1-2-8-7-4-7"
       style="fill:#8fbcbb;stroke:#8fbcbb;stroke-width:0.471228"
       d="m 201.69735,158.98661 v -49.52939 c 0,27.439 -22.09038,49.52939 -49.52938,49.52939 z" />
    <path
       id="rect31-3-6-7-5-3-5-6-2-9-1-2-8-7-4-7-8"
       style="fill:#8fbcbb;stroke:#8fbcbb;stroke-width:0.471228"
       d="m 152.16796,158.98661 v -49.52939 c 0,27.439 -22.09038,49.52939 -49.52938,49.52939 z" />
    <path
       id="rect31-3-6-7-5-3-5-6-2-9-1-2-8-7-4-7-8-4"
       style="fill:#8fbcbb;stroke:#8fbcbb;stroke-width:0.471228"
       d="m 102.63911,208.51385 h 49.52939 c -27.439,0 -49.52939,-22.09038 -49.52939,-49.52938 z" />
    <path
       id="rect31-3-6-7-5-3-5-6-2-9-1-2-8-7-4-7-8-4-5"
       style="fill:#8fbcbb;stroke:#8fbcbb;stroke-width:0.471228"
       d="m 201.69666,208.51385 v -49.52939 c 0,27.439 -22.09038,49.52939 -49.52938,49.52939 z" />
    <path
       id="rect31-3-6-7-5-3-5-6-2-9-1-2-8-7-4-7-8-4-5-0"
       style="fill:#8fbcbb;stroke:#8fbcbb;stroke-width:0.471228"
       d="m 152.16797,158.98661 h -49.52939 c 27.43901,0 49.52939,22.09038 49.52939,49.52938 z" />
    <path
       id="rect31-3-6-7-5-3-5-6-2-9-1-2-8-7-4-7-8-4-5-0-3"
       style="fill:#8fbcbb;stroke:#8fbcbb;stroke-width:0.471228"
       d="M 152.16797,158.98661 V 208.516 c 0,-27.43901 22.09038,-49.52939 49.52938,-49.52939 z" />
    <path
       id="rect31-3-6-7-5-3-5-6-2-9-1-2-8-7-4-7-8-4-5-0-3-6"
       style="fill:#8fbcbb;stroke:#8fbcbb;stroke-width:0.471228"
       d="m 152.16797,208.516 v 49.52939 c 0,-27.43901 22.09038,-49.52939 49.52938,-49.52939 z" />
    <path
       id="rect31-3-6-7-5-3-5-6-2-9-1-2-8-7-4-7-8-4-5-0-3-6-1"
       style="fill:#8fbcbb;stroke:#8fbcbb;stroke-width:0.471228"
       d="m 152.16797,208.516 h -49.52939 c 27.439,0 49.52939,22.09038 49.52939,49.52938 z" />
    <path
       id="rect31-3-6-7-5-3-5-6-2-9-1-2-8-7-5"
       style="fill:#8fbcbb;stroke:#8fbcbb;stroke-width:0.471228"
       d="m 102.63858,109.45722 v 49.52939 c 0,-27.439 22.09039,-49.52939 49.52939,-49.52939 z" />
    <path
       id="rect31-3-6-7-5-3-5-6-2-9-1-2-8-1"
       style="fill:#8fbcbb;stroke:#8fbcbb;stroke-width:0.471228"
       d="M 201.69736,109.45722 V 59.92783 c 0,27.439 -22.09039,49.52939 -49.52939,49.52939 z" />
    <path
       id="rect31-3-6-7-5-3-5-6-2-9-1-2-8-7-5-9"
       style="fill:#8fbcbb;stroke:#8fbcbb;stroke-width:0.471228"
       d="m 152.16797,109.45722 v 49.52939 c 0,-27.439 22.09039,-49.52939 49.52939,-49.52939 z" />
    <path
       id="rect31-3-6-7-5-3-5-6-2-9-1-2-8-9"
       style="fill:#8fbcbb;stroke:#8fbcbb;stroke-width:0.471228"
       d="m 152.16797,59.927828 v -49.52939 c 0,27.439 -22.09039,49.52939 -49.52939,49.52939 z" />
    <path
       id="rect31-3-6-7-5-3-5-6-2-9-1-2-8-7-5-2"
       style="fill:#8fbcbb;stroke:#8fbcbb;stroke-width:0.471228"
       d="m 102.63858,59.927828 v 49.529392 c 0,-27.439002 22.09039,-49.529392 49.52939,-49.529392 z" />
    <path
       id="rect31-3-6-7-5-3-5-6-2-9-1-2-8-3-2"
       style="fill:#8fbcbb;stroke:#8fbcbb;stroke-width:0.471228"
       d="m 152.16797,10.398438 v 49.52939 c 0,-27.439 22.09039,-49.52939 49.52939,-49.52939 z" />
    <path
       id="rect31-3-6-7-5-3-5-6-2-9-1-2-8-9-8"
       style="fill:#8fbcbb;stroke:#8fbcbb;stroke-width:0.471228"
       d="m 201.69736,59.927828 v -49.52939 c 0,27.439 -22.09039,49.52939 -49.52939,49.52939 z" />
    <path
       id="rect31-3-6-7-5-3-5-6-2-9-1-2-8-7-5-2-9"
       style="fill:#8fbcbb;stroke:#8fbcbb;stroke-width:0.471228"
       d="m 152.16797,59.927828 v 49.529392 c 0,-27.439002 22.09039,-49.529392 49.52939,-49.529392 z" />
    <path
       id="rect31-3-6-7-5-3-5-6-2-9-1-2-8-3-2-7"
       style="fill:#8fbcbb;stroke:#8fbcbb;stroke-width:0.471228"
       d="m 201.69736,10.398438 v 49.52939 c 0,-27.439 22.09039,-49.52939 49.52939,-49.52939 z" />
    <path
       id="rect31-3-6-7-5-3-5-6-2-9-1-2-8-9-8-3"
       style="fill:#8fbcbb;stroke:#8fbcbb;stroke-width:0.471228"
       d="m 251.22675,59.927828 v -49.52939 c 0,27.439 -22.09039,49.52939 -49.52939,49.52939 z" />
    <path
       id="rect31-3-6-7-5-3-5-6-2-9-1-2-8-7-5-2-9-6"
       style="fill:#8fbcbb;stroke:#8fbcbb;stroke-width:0.471228"
       d="m 201.69736,59.927828 v 49.529392 c 0,-27.439004 22.09039,-49.529392 49.52939,-49.529392 z" />
    <path
       id="rect31-3-6-7-5-3-5-6-2-9-1-2-8-3-2-7-1"
       style="fill:#8fbcbb;stroke:#8fbcbb;stroke-width:0.471228"
       d="m 251.22675,10.398438 v 49.52939 c 0,-27.439 22.09039,-49.52939 49.52939,-49.52939 z" />
    <path
       id="rect31-3-6-7-5-3-5-6-2-9-1-2-8-9-8-3-2"
       style="fill:#8fbcbb;stroke:#8fbcbb;stroke-width:0.471228"
       d="m 300.75614,59.927828 v -49.52939 c 0,27.439 -22.09039,49.52939 -49.52939,49.52939 z" />
    <path
       id="rect31-3-6-7-5-3-5-6-2-9-1-2-8-7-5-2-9-6-9"
       style="fill:#8fbcbb;stroke:#8fbcbb;stroke-width:0.471228"
       d="m 251.22675,59.927828 v 49.529392 c 0,-27.439008 22.09039,-49.529392 49.52939,-49.529392 z" />
    <path
       id="rect31-3-6-7-5-3-5-6-2-9-1-2-8-3-2-7-1-3"
       style="fill:#8fbcbb;stroke:#8fbcbb;stroke-width:0.471228"
       d="m 300.75614,10.398438 v 49.52939 c 0,-27.439 22.09039,-49.52939 49.52939,-49.52939 z" />
    <path
       id="rect31-3-6-7-5-3-5-6-2-9-1-2-8-7-0-6-0-56"
       style="fill:#5e81ac;stroke:#5e81ac;stroke-width:0.471228"
       d="m 102.63867,406.62677 v 49.52939 c 0,-27.439 22.09039,-49.52939 49.52939,-49.52939 z" />
    <path
       id="rect31-3-6-7-5-3-5-6-2-9-1-2-8-7-0-6-0-56-9"
       style="fill:#5e81ac;stroke:#5e81ac;stroke-width:0.471228"
       d="m 201.69727,307.57227 v 49.52939 c 0,-27.439 22.09039,-49.52939 49.52939,-49.52939 z" />
  </g>
</svg>
