<?xml version="1.0" encoding="UTF-8" standalone="no"?>
<!-- Created with Inkscape (http://www.inkscape.org/) -->

<svg
   width="512"
   height="512"
   viewBox="0 0 512 512"
   version="1.1"
   id="svg5"
   inkscape:version="1.1.2 (0a00cf5339, 2022-02-04, custom)"
   sodipodi:docname="tileWebsite.svg"
   xmlns:inkscape="http://www.inkscape.org/namespaces/inkscape"
   xmlns:sodipodi="http://sodipodi.sourceforge.net/DTD/sodipodi-0.dtd"
   xmlns="http://www.w3.org/2000/svg"
   xmlns:svg="http://www.w3.org/2000/svg">
  <sodipodi:namedview
     id="namedview7"
     pagecolor="#505050"
     bordercolor="#eeeeee"
     borderopacity="1"
     inkscape:pageshadow="0"
     inkscape:pageopacity="0"
     inkscape:pagecheckerboard="0"
     inkscape:document-units="px"
     showgrid="false"
     inkscape:zoom="1.1575153"
     inkscape:cx="168.03233"
     inkscape:cy="275.15834"
     inkscape:window-width="1900"
     inkscape:window-height="1015"
     inkscape:window-x="8"
     inkscape:window-y="53"
     inkscape:window-maximized="1"
     inkscape:current-layer="layer1" />
  <defs
     id="defs2">
    <inkscape:perspective
       sodipodi:type="inkscape:persp3d"
       inkscape:vp_x="0 : 256 : 1"
       inkscape:vp_y="0 : 1000 : 0"
       inkscape:vp_z="512 : 256 : 1"
       inkscape:persp3d-origin="256 : 170.66667 : 1"
       id="perspective14120" />
  </defs>
  <g
     inkscape:label="Layer 1"
     inkscape:groupmode="layer"
     id="layer1">
    <rect
       style="opacity:1;fill:#88c0d0;fill-opacity:1;stroke:#5e81ac;stroke-width:0;stroke-linecap:butt;stroke-linejoin:miter;stroke-miterlimit:4;stroke-dasharray:none"
       id="rect85868"
       width="500"
       height="500"
       x="5.0583105"
       y="5.0078316" />
    <rect
       style="fill:#ebcb8b;fill-opacity:1;stroke:#5e81ac;stroke-width:0;stroke-linecap:butt;stroke-linejoin:miter;stroke-miterlimit:4;stroke-dasharray:none"
       id="rect81479-6-6-6"
       width="100"
       height="100"
       x="205.05663"
       y="205.00922"
       ry="0" />
    <rect
       style="fill:#d08770;fill-opacity:1;stroke:#5e81ac;stroke-width:0;stroke-linecap:butt;stroke-linejoin:miter;stroke-miterlimit:4;stroke-dasharray:none"
       id="rect81479-6-6-6-2"
       width="100"
       height="100"
       x="105.05666"
       y="205.0092"
       ry="0" />
    <rect
       style="fill:#bf616a;fill-opacity:1;stroke:#5e81ac;stroke-width:0;stroke-linecap:butt;stroke-linejoin:miter;stroke-miterlimit:4;stroke-dasharray:none"
       id="rect81479-6-6-6-2-4"
       width="100"
       height="100"
       x="5.0566626"
       y="205.00919"
       ry="0" />
    <rect
       style="fill:#a3be8c;fill-opacity:1;stroke:#5e81ac;stroke-width:0;stroke-linecap:butt;stroke-linejoin:miter;stroke-miterlimit:4;stroke-dasharray:none"
       id="rect81479-6-6-6-2-4-7"
       width="100"
       height="100"
       x="305.05664"
       y="205.00922"
       ry="0" />
    <rect
       style="fill:#b48ead;fill-opacity:1;stroke:#5e81ac;stroke-width:0;stroke-linecap:butt;stroke-linejoin:miter;stroke-miterlimit:4;stroke-dasharray:none"
       id="rect81479-6-6-6-2-4-7-9"
       width="100"
       height="100"
       x="405.05667"
       y="205.0092"
       ry="0" />
    <text
       xml:space="preserve"
       style="font-style:normal;font-weight:normal;font-size:40px;line-height:1.25;font-family:sans-serif;white-space:pre;inline-size:268.841;fill:#eceff4;fill-opacity:1;stroke:none"
       x="73.156067"
       y="87.591827"
       id="text20918" />
    <path
       id="rect81479"
       style="opacity:1;fill:#5e81ac;fill-opacity:1;stroke:#5e81ac;stroke-width:0;stroke-linecap:butt;stroke-linejoin:miter;stroke-miterlimit:4;stroke-dasharray:none"
       d="m 255.05745,5.0085212 a 50,49.999992 0 0 0 -35.35547,14.6445298 50,49.999992 0 0 0 -14.64453,35.35547 v 49.999999 h 100 V 5.0085212 Z" />
    <rect
       style="fill:#5e81ac;fill-opacity:1;stroke:#5e81ac;stroke-width:0;stroke-linecap:butt;stroke-linejoin:miter;stroke-miterlimit:4;stroke-dasharray:none"
       id="rect81479-6"
       width="100"
       height="100"
       x="105.05666"
       y="5.009201"
       ry="0" />
    <rect
       style="fill:#81a1c1;fill-opacity:1;stroke:#5e81ac;stroke-width:0;stroke-linecap:butt;stroke-linejoin:miter;stroke-miterlimit:4;stroke-dasharray:none"
       id="rect81479-6-6"
       width="100"
       height="100"
       x="5.0566626"
       y="5.009201"
       ry="0" />
    <path
       id="rect81479-6-4"
       style="fill:#81a1c1;fill-opacity:1;stroke:#5e81ac;stroke-width:0;stroke-linecap:butt;stroke-linejoin:miter;stroke-miterlimit:4;stroke-dasharray:none"
       d="m 305.05661,105.00921 a 49.999992,50 0 0 0 14.64453,35.35547 49.999992,50 0 0 0 35.35547,14.64453 50,49.999992 0 0 0 -35.35547,14.64453 50,49.999992 0 0 0 -14.64453,35.35547 h 100.00001 v -100 z" />
    <path
       id="rect81479-6-0"
       style="opacity:1;fill:#81a1c1;fill-opacity:1;stroke:#5e81ac;stroke-width:0;stroke-linecap:butt;stroke-linejoin:miter;stroke-miterlimit:4;stroke-dasharray:none"
       d="m 205.05662,105.00921 v 100 h 49.99999 a 50,49.999992 0 0 0 35.35547,-14.64453 50,49.999992 0 0 0 14.64453,-35.35547 v -50 z" />
    <path
       id="rect81479-6-0-7"
       style="fill:#8fbcbb;fill-opacity:1;stroke:#5e81ac;stroke-width:0;stroke-linecap:butt;stroke-linejoin:miter;stroke-miterlimit:4;stroke-dasharray:none"
       d="m 455.05663,105.00921 a 50,49.999992 0 0 0 -35.35548,14.64453 50,49.999992 0 0 0 -14.64453,35.35547 v 50 h 50.00001 a 50,49.999992 0 0 0 35.35547,-14.64453 50,49.999992 0 0 0 14.64453,-35.35547 49.999992,50 0 0 0 -14.64453,-35.35547 49.999992,50 0 0 0 -35.35547,-14.64453 z" />
    <path
       id="rect81479-6-0-7-5-2"
       style="fill:#81a1c1;fill-opacity:1;stroke:#5e81ac;stroke-width:0;stroke-linecap:butt;stroke-linejoin:miter;stroke-miterlimit:4;stroke-dasharray:none"
       d="m 455.05663,205.00921 v -50 a 50,49.999992 0 0 1 -14.64453,35.35547 50,49.999992 0 0 1 -35.35548,14.64453 z" />
    <rect
       style="fill:#81a1c1;fill-opacity:1;stroke:#5e81ac;stroke-width:0;stroke-linecap:butt;stroke-linejoin:miter;stroke-miterlimit:4;stroke-dasharray:none"
       id="rect81479-6-04"
       width="100"
       height="100"
       x="105.05666"
       y="105.00919"
       ry="0" />
    <path
       id="rect81479-6-62"
       style="fill:#81a1c1;fill-opacity:1;stroke:#5e81ac;stroke-width:0;stroke-linecap:butt;stroke-linejoin:miter;stroke-miterlimit:4;stroke-dasharray:none"
       d="M 305.05745,5.0085212 V 105.00852 h 50 a 50,49.999992 0 0 0 35.35547,-14.644529 50,49.999992 0 0 0 14.64453,-35.35547 V 5.0085212 Z" />
    <rect
       style="fill:#5e81ac;fill-opacity:1;stroke:#5e81ac;stroke-width:0;stroke-linecap:butt;stroke-linejoin:miter;stroke-miterlimit:4;stroke-dasharray:none"
       id="rect81479-0"
       width="100"
       height="100"
       x="5.0558081"
       y="105.0099"
       ry="0" />
    <path
       id="rect81479-0-5"
       style="fill:#5e81ac;fill-opacity:1;stroke:#5e81ac;stroke-width:0;stroke-linecap:butt;stroke-linejoin:miter;stroke-miterlimit:4;stroke-dasharray:none"
       d="M 405.0583,5.0078312 V 105.00784 h 50.00001 a 50,49.999992 0 0 0 35.35547,-14.644549 50,49.999992 0 0 0 14.64453,-35.35546 h -50 a 50,49.999992 0 0 0 35.35547,-14.64453 50,49.999992 0 0 0 14.64453,-35.3554698 z" />
    <path
       id="rect81479-6-0-7-5-50"
       style="fill:#5e81ac;fill-opacity:1;stroke:#5e81ac;stroke-width:0;stroke-linecap:butt;stroke-linejoin:miter;stroke-miterlimit:4;stroke-dasharray:none"
       d="m 155.05665,205.00919 v -50 a 50,49.999992 0 0 1 -14.64453,35.35547 50,49.999992 0 0 1 -35.35547,14.64453 z" />
    <path
       id="rect81479-6-0-7-5-50-2"
       style="fill:#5e81ac;fill-opacity:1;stroke:#5e81ac;stroke-width:0;stroke-linecap:butt;stroke-linejoin:miter;stroke-miterlimit:4;stroke-dasharray:none"
       d="m 305.05745,105.00852 h 50 A 49.999992,50 0 0 1 319.70198,90.363991 49.999992,50 0 0 1 305.05745,55.008521 Z" />
    <path
       id="rect81479-6-0-7-5-50-9"
       style="fill:#5e81ac;fill-opacity:1;stroke:#5e81ac;stroke-width:0;stroke-linecap:butt;stroke-linejoin:miter;stroke-miterlimit:4;stroke-dasharray:none"
       d="m 205.05662,205.00919 v -50 a 50,49.999992 0 0 1 -14.64453,35.35547 50,49.999992 0 0 1 -35.35547,14.64453 z" />
    <path
       id="rect81479-6-0-7-5-50-9-4"
       style="fill:#5e81ac;fill-opacity:1;stroke:#5e81ac;stroke-width:0;stroke-linecap:butt;stroke-linejoin:miter;stroke-miterlimit:4;stroke-dasharray:none"
       d="m 155.05665,155.00919 v 50 a 50,49.999992 0 0 1 14.64453,-35.35547 50,49.999992 0 0 1 35.35547,-14.64453 z" />
    <path
       id="rect81479-6-0-7-5-50-9-4-3"
       style="fill:#5e81ac;fill-opacity:1;stroke:#5e81ac;stroke-width:0;stroke-linecap:butt;stroke-linejoin:miter;stroke-miterlimit:4;stroke-dasharray:none"
       d="m 155.05665,155.00919 h 50 a 49.999992,50 0 0 1 -35.35547,-14.64453 49.999992,50 0 0 1 -14.64453,-35.35547 z" />
    <path
       id="rect81479-6-0-7-5-50-9-4-3-5"
       style="fill:#5e81ac;fill-opacity:1;stroke:#5e81ac;stroke-width:0;stroke-linecap:butt;stroke-linejoin:miter;stroke-miterlimit:4;stroke-dasharray:none"
       d="m 155.05662,105.00921 h -50 a 49.999992,50 0 0 1 35.35547,14.64453 49.999992,50 0 0 1 14.64453,35.35547 z" />
    <path
       id="rect81479-6-0-7-5-0"
       style="fill:#8fbcbb;fill-opacity:1;stroke:#5e81ac;stroke-width:0;stroke-linecap:butt;stroke-linejoin:miter;stroke-miterlimit:4;stroke-dasharray:none"
       d="m 5.0566348,205.00922 v 50 a 50,49.999992 0 0 1 14.6445302,-35.35547 50,49.999992 0 0 1 35.35547,-14.64453 z" />
    <path
       id="rect81479-6-0-7-5-36"
       style="fill:#8fbcbb;fill-opacity:1;stroke:#5e81ac;stroke-width:0;stroke-linecap:butt;stroke-linejoin:miter;stroke-miterlimit:4;stroke-dasharray:none"
       d="m 105.05667,105.00922 h 50 A 49.999992,50 0 0 1 119.7012,90.364691 49.999992,50 0 0 1 105.05667,55.009221 Z" />
    <path
       id="rect81479-6-0-7-5-6"
       style="fill:#8fbcbb;fill-opacity:1;stroke:#5e81ac;stroke-width:0;stroke-linecap:butt;stroke-linejoin:miter;stroke-miterlimit:4;stroke-dasharray:none"
       d="M 255.05745,55.008521 V 5.0085212 a 50,49.999992 0 0 1 -14.64453,35.3554698 50,49.999992 0 0 1 -35.35547,14.64453 z" />
    <path
       id="rect81479-6-0-7-5-6-1"
       style="fill:#8fbcbb;fill-opacity:1;stroke:#5e81ac;stroke-width:0;stroke-linecap:butt;stroke-linejoin:miter;stroke-miterlimit:4;stroke-dasharray:none"
       d="M 305.05661,55.009201 V 5.0092012 a 50,49.999992 0 0 1 -14.64453,35.3554698 50,49.999992 0 0 1 -35.35547,14.64453 z" />
    <path
       id="rect81479-6-0-7-5-6-0"
       style="fill:#8fbcbb;fill-opacity:1;stroke:#5e81ac;stroke-width:0;stroke-linecap:butt;stroke-linejoin:miter;stroke-miterlimit:4;stroke-dasharray:none"
       d="M 255.05745,105.00852 V 55.008521 a 50,49.999992 0 0 1 -14.64453,35.35547 50,49.999992 0 0 1 -35.35547,14.644529 z" />
    <path
       id="rect81479-6-0-7-5-6-4"
       style="fill:#8fbcbb;fill-opacity:1;stroke:#5e81ac;stroke-width:0;stroke-linecap:butt;stroke-linejoin:miter;stroke-miterlimit:4;stroke-dasharray:none"
       d="M 305.05661,105.00921 V 55.009201 a 50,49.999992 0 0 1 -14.64453,35.35548 50,49.999992 0 0 1 -35.35547,14.644529 z" />
    <path
       id="rect81479-6-0-7-5-04"
       style="fill:#5e81ac;fill-opacity:1;stroke:#5e81ac;stroke-width:0;stroke-linecap:butt;stroke-linejoin:miter;stroke-miterlimit:4;stroke-dasharray:none"
       d="m 355.05745,55.008521 v 49.999999 a 50,49.999992 0 0 1 14.64453,-35.355469 50,49.999992 0 0 1 35.35547,-14.64453 z" />
    <path
       id="rect81479-6-0-7-5-04-8"
       style="fill:#5e81ac;fill-opacity:1;stroke:#5e81ac;stroke-width:0;stroke-linecap:butt;stroke-linejoin:miter;stroke-miterlimit:4;stroke-dasharray:none"
       d="m 355.05745,55.008521 h -50 a 49.999992,50 0 0 1 35.35547,14.64453 49.999992,50 0 0 1 14.64453,35.355469 z" />
    <path
       id="rect81479-6-0-7-5-04-8-0"
       style="fill:#5e81ac;fill-opacity:1;stroke:#5e81ac;stroke-width:0;stroke-linecap:butt;stroke-linejoin:miter;stroke-miterlimit:4;stroke-dasharray:none"
       d="M 355.05745,55.008521 V 5.0085212 a 50,49.999992 0 0 1 -14.64453,35.3554698 50,49.999992 0 0 1 -35.35547,14.64453 z" />
    <path
       id="rect81479-6-0-7-5-04-8-0-4"
       style="fill:#5e81ac;fill-opacity:1;stroke:#5e81ac;stroke-width:0;stroke-linecap:butt;stroke-linejoin:miter;stroke-miterlimit:4;stroke-dasharray:none"
       d="m 355.05745,55.008521 h 50 A 49.999992,50 0 0 1 369.70198,40.363991 49.999992,50 0 0 1 355.05745,5.0085212 Z" />
    <path
       id="rect81479-6-0-7-5-7"
       style="fill:#81a1c1;fill-opacity:1;stroke:#5e81ac;stroke-width:0;stroke-linecap:butt;stroke-linejoin:miter;stroke-miterlimit:4;stroke-dasharray:none"
       d="m 405.05745,5.0085212 h -50 a 49.999992,50 0 0 1 35.35547,14.6445298 49.999992,50 0 0 1 14.64453,35.35547 z" />
    <path
       id="rect81479-6-0-7-5-5"
       style="fill:#5e81ac;fill-opacity:1;stroke:#5e81ac;stroke-width:0;stroke-linecap:butt;stroke-linejoin:miter;stroke-miterlimit:4;stroke-dasharray:none"
       d="M 305.05745,5.0085212 V 55.008521 a 50,49.999992 0 0 1 14.64453,-35.35547 50,49.999992 0 0 1 35.35547,-14.6445298 z" />
    <path
       id="rect81479-6-0-7-5-5-8"
       style="fill:#5e81ac;fill-opacity:1;stroke:#5e81ac;stroke-width:0;stroke-linecap:butt;stroke-linejoin:miter;stroke-miterlimit:4;stroke-dasharray:none"
       d="m 205.05662,105.00921 h -50 a 49.999992,50 0 0 1 35.35547,14.64453 49.999992,50 0 0 1 14.64453,35.35547 z" />
    <path
       id="rect81479-6-0-7-5-5-8-2"
       style="fill:#5e81ac;fill-opacity:1;stroke:#5e81ac;stroke-width:0;stroke-linecap:butt;stroke-linejoin:miter;stroke-miterlimit:4;stroke-dasharray:none"
       d="m 405.05745,5.0085212 h -50 a 49.999992,50 0 0 1 35.35547,14.6445298 49.999992,50 0 0 1 14.64453,35.35547 z" />
    <path
       id="rect81479-6-0-7-5-4"
       style="opacity:1;fill:#5e81ac;fill-opacity:1;stroke:#5e81ac;stroke-width:0;stroke-linecap:butt;stroke-linejoin:miter;stroke-miterlimit:4;stroke-dasharray:none"
       d="m 305.05577,155.00991 v -50 a 50,49.999992 0 0 1 -14.64453,35.35547 50,49.999992 0 0 1 -35.35547,14.64453 z" />
    <path
       id="rect81479-6-0-7-5-4-9"
       style="fill:#5e81ac;fill-opacity:1;stroke:#5e81ac;stroke-width:0;stroke-linecap:butt;stroke-linejoin:miter;stroke-miterlimit:4;stroke-dasharray:none"
       d="m 355.05661,205.00921 v -50 a 50,49.999992 0 0 1 -14.64453,35.35547 50,49.999992 0 0 1 -35.35547,14.64453 z" />
    <path
       id="rect81479-6-0-7-5-4-9-1"
       style="fill:#5e81ac;fill-opacity:1;stroke:#5e81ac;stroke-width:0;stroke-linecap:butt;stroke-linejoin:miter;stroke-miterlimit:4;stroke-dasharray:none"
       d="m 405.05662,205.00921 v -50 a 50,49.999992 0 0 1 -14.64454,35.35547 50,49.999992 0 0 1 -35.35547,14.64453 z" />
    <path
       id="rect81479-6-0-7-5-4-9-1-7"
       style="fill:#5e81ac;fill-opacity:1;stroke:#5e81ac;stroke-width:0;stroke-linecap:butt;stroke-linejoin:miter;stroke-miterlimit:4;stroke-dasharray:none"
       d="m 405.0558,155.00988 v -50 a 50,49.999992 0 0 1 -14.64454,35.35547 50,49.999992 0 0 1 -35.35547,14.64453 z" />
    <path
       id="rect81479-6-0-7-5-3"
       style="opacity:1;fill:#5e81ac;fill-opacity:1;stroke:#5e81ac;stroke-width:0;stroke-linecap:butt;stroke-linejoin:miter;stroke-miterlimit:4;stroke-dasharray:none"
       d="m 205.05578,155.00991 v 50 a 50,49.999992 0 0 1 14.64453,-35.35547 50,49.999992 0 0 1 35.35546,-14.64453 z" />
    <path
       id="rect81479-6-0-7-5-3-2"
       style="opacity:1;fill:#5e81ac;fill-opacity:1;stroke:#5e81ac;stroke-width:0;stroke-linecap:butt;stroke-linejoin:miter;stroke-miterlimit:4;stroke-dasharray:none"
       d="m 255.05577,155.00991 v 50 a 50,49.999992 0 0 1 14.64453,-35.35547 50,49.999992 0 0 1 35.35547,-14.64453 z" />
    <path
       id="rect81479-6-0-7-5-3-2-1"
       style="opacity:1;fill:#5e81ac;fill-opacity:1;stroke:#5e81ac;stroke-width:0;stroke-linecap:butt;stroke-linejoin:miter;stroke-miterlimit:4;stroke-dasharray:none"
       d="m 255.05577,205.00991 v -50 a 50,49.999992 0 0 1 -14.64453,35.35547 50,49.999992 0 0 1 -35.35546,14.64453 z" />
    <path
       id="rect81479-6-0-7-5-3-9"
       style="opacity:1;fill:#5e81ac;fill-opacity:1;stroke:#5e81ac;stroke-width:0;stroke-linecap:butt;stroke-linejoin:miter;stroke-miterlimit:4;stroke-dasharray:none"
       d="m 205.05662,105.00921 v 50 a 50,49.999992 0 0 1 14.64453,-35.35547 50,49.999992 0 0 1 35.35546,-14.64453 z" />
    <path
       id="rect81479-6-0-7-5-3-2-9"
       style="opacity:1;fill:#5e81ac;fill-opacity:1;stroke:#5e81ac;stroke-width:0;stroke-linecap:butt;stroke-linejoin:miter;stroke-miterlimit:4;stroke-dasharray:none"
       d="m 255.05661,105.00921 v 50 a 50,49.999992 0 0 1 14.64453,-35.35547 50,49.999992 0 0 1 35.35547,-14.64453 z" />
    <path
       id="rect81479-6-0-7-5-3-2-1-1"
       style="opacity:1;fill:#5e81ac;fill-opacity:1;stroke:#5e81ac;stroke-width:0;stroke-linecap:butt;stroke-linejoin:miter;stroke-miterlimit:4;stroke-dasharray:none"
       d="m 255.05661,155.00921 v -50 a 50,49.999992 0 0 1 -14.64453,35.35547 50,49.999992 0 0 1 -35.35546,14.64453 z" />
    <path
       id="rect81479-6-0-7-5-27"
       style="fill:#5e81ac;fill-opacity:1;stroke:#5e81ac;stroke-width:0;stroke-linecap:butt;stroke-linejoin:miter;stroke-miterlimit:4;stroke-dasharray:none"
       d="m 105.05665,205.00919 v 50 a 50,49.999992 0 0 1 14.64453,-35.35547 50,49.999992 0 0 1 35.35547,-14.64453 z" />
    <path
       id="rect81479-6-0-7-5-27-0"
       style="fill:#5e81ac;fill-opacity:1;stroke:#5e81ac;stroke-width:0;stroke-linecap:butt;stroke-linejoin:miter;stroke-miterlimit:4;stroke-dasharray:none"
       d="m 355.05661,155.00921 v 50 a 50,49.999992 0 0 1 14.64453,-35.35547 50,49.999992 0 0 1 35.35548,-14.64453 z" />
    <path
       id="rect81479-6-0-7-5-6-2"
       style="fill:#8fbcbb;fill-opacity:1;stroke:#5e81ac;stroke-width:0;stroke-linecap:butt;stroke-linejoin:miter;stroke-miterlimit:4;stroke-dasharray:none"
       d="m 55.055795,155.0099 v -50 A 50,49.999992 0 0 1 40.411265,140.36537 50,49.999992 0 0 1 5.0557948,155.0099 Z" />
    <path
       id="rect81479-6-0-7-5-6-22"
       style="fill:#8fbcbb;fill-opacity:1;stroke:#5e81ac;stroke-width:0;stroke-linecap:butt;stroke-linejoin:miter;stroke-miterlimit:4;stroke-dasharray:none"
       d="m 105.05577,155.0099 v -50 a 50,49.999992 0 0 1 -14.644515,35.35547 50,49.999992 0 0 1 -35.35547,14.64453 z" />
    <path
       id="rect81479-6-0-7-5-6-05"
       style="fill:#8fbcbb;fill-opacity:1;stroke:#5e81ac;stroke-width:0;stroke-linecap:butt;stroke-linejoin:miter;stroke-miterlimit:4;stroke-dasharray:none"
       d="M 55.056635,205.00922 V 155.00921 A 50,49.999992 0 0 1 40.412105,190.36468 50,49.999992 0 0 1 5.0566348,205.00922 Z" />
    <path
       id="rect81479-6-0-7-5-6-5"
       style="fill:#8fbcbb;fill-opacity:1;stroke:#5e81ac;stroke-width:0;stroke-linecap:butt;stroke-linejoin:miter;stroke-miterlimit:4;stroke-dasharray:none"
       d="M 155.05666,55.009221 V 5.0092212 a 50,49.999992 0 0 1 -14.64453,35.3554698 50,49.999992 0 0 1 -35.35547,14.64453 z" />
    <path
       id="rect81479-6-0-7-5-6-29"
       style="fill:#8fbcbb;fill-opacity:1;stroke:#5e81ac;stroke-width:0;stroke-linecap:butt;stroke-linejoin:miter;stroke-miterlimit:4;stroke-dasharray:none"
       d="M 205.05666,55.009221 V 5.0092212 a 50,49.999992 0 0 1 -14.64453,35.3554698 50,49.999992 0 0 1 -35.35547,14.64453 z" />
    <path
       id="rect81479-6-0-7-5-6-02"
       style="fill:#8fbcbb;fill-opacity:1;stroke:#5e81ac;stroke-width:0;stroke-linecap:butt;stroke-linejoin:miter;stroke-miterlimit:4;stroke-dasharray:none"
       d="M 205.05666,105.00922 V 55.009221 a 50,49.999992 0 0 1 -14.64453,35.35547 50,49.999992 0 0 1 -35.35547,14.644529 z" />
    <path
       id="rect81479-6-0-7-5-6-02-8"
       style="fill:#8fbcbb;fill-opacity:1;stroke:#5e81ac;stroke-width:0;stroke-linecap:butt;stroke-linejoin:miter;stroke-miterlimit:4;stroke-dasharray:none"
       d="m 205.05745,55.008521 v 49.999999 a 50,49.999992 0 0 1 14.64453,-35.355469 50,49.999992 0 0 1 35.35547,-14.64453 z" />
    <path
       id="rect81479-6-0-7-5-6-02-8-3"
       style="fill:#8fbcbb;fill-opacity:1;stroke:#5e81ac;stroke-width:0;stroke-linecap:butt;stroke-linejoin:miter;stroke-miterlimit:4;stroke-dasharray:none"
       d="M 255.05745,5.0085212 V 55.008521 a 50,49.999992 0 0 1 14.64453,-35.35547 50,49.999992 0 0 1 35.35547,-14.6445298 z" />
    <path
       id="rect81479-6-0-7-5-6-02-8-8"
       style="fill:#8fbcbb;fill-opacity:1;stroke:#5e81ac;stroke-width:0;stroke-linecap:butt;stroke-linejoin:miter;stroke-miterlimit:4;stroke-dasharray:none"
       d="m 5.0566348,105.00921 v 50 a 50,49.999992 0 0 1 14.6445302,-35.35547 50,49.999992 0 0 1 35.35547,-14.64453 z" />
    <path
       id="rect81479-6-0-7-5-6-02-8-0"
       style="fill:#8fbcbb;fill-opacity:1;stroke:#5e81ac;stroke-width:0;stroke-linecap:butt;stroke-linejoin:miter;stroke-miterlimit:4;stroke-dasharray:none"
       d="m 55.056635,105.00921 v 50 a 50,49.999992 0 0 1 14.64453,-35.35547 50,49.999992 0 0 1 35.355455,-14.64453 z" />
    <path
       id="rect81479-6-0-7-5-6-02-8-4"
       style="fill:#8fbcbb;fill-opacity:1;stroke:#5e81ac;stroke-width:0;stroke-linecap:butt;stroke-linejoin:miter;stroke-miterlimit:4;stroke-dasharray:none"
       d="M 405.05745,5.0085212 V 55.008521 a 50,49.999992 0 0 1 14.64453,-35.35547 50,49.999992 0 0 1 35.35548,-14.6445298 z" />
    <path
       id="rect81479-6-0-7-5-6-02-8-09"
       style="fill:#8fbcbb;fill-opacity:1;stroke:#5e81ac;stroke-width:0;stroke-linecap:butt;stroke-linejoin:miter;stroke-miterlimit:4;stroke-dasharray:none"
       d="m 5.0566348,155.00921 v 50.00001 a 50,49.999992 0 0 1 14.6445302,-35.35548 50,49.999992 0 0 1 35.35547,-14.64453 z" />
    <path
       id="rect81479-6-0-7-5-6-02-8-1"
       style="fill:#8fbcbb;fill-opacity:1;stroke:#5e81ac;stroke-width:0;stroke-linecap:butt;stroke-linejoin:miter;stroke-miterlimit:4;stroke-dasharray:none"
       d="m 255.05745,55.008521 v 49.999999 a 50,49.999992 0 0 1 14.64453,-35.355469 50,49.999992 0 0 1 35.35547,-14.64453 z" />
    <path
       id="rect81479-6-0-7-5-6-02-8-9"
       style="fill:#8fbcbb;fill-opacity:1;stroke:#5e81ac;stroke-width:0;stroke-linecap:butt;stroke-linejoin:miter;stroke-miterlimit:4;stroke-dasharray:none"
       d="M 105.0575,5.0085312 V 55.008531 A 50,49.999992 0 0 1 119.70203,19.653061 50,49.999992 0 0 1 155.0575,5.0085312 Z" />
    <path
       id="rect81479-6-0-7-5-6-02-8-6"
       style="fill:#8fbcbb;fill-opacity:1;stroke:#5e81ac;stroke-width:0;stroke-linecap:butt;stroke-linejoin:miter;stroke-miterlimit:4;stroke-dasharray:none"
       d="M 155.0575,5.0085312 V 55.008531 A 50,49.999992 0 0 1 169.70203,19.653061 50,49.999992 0 0 1 205.0575,5.0085312 Z" />
    <path
       id="rect81479-6-0-7-5-6-02-8-2"
       style="fill:#8fbcbb;fill-opacity:1;stroke:#5e81ac;stroke-width:0;stroke-linecap:butt;stroke-linejoin:miter;stroke-miterlimit:4;stroke-dasharray:none"
       d="m 55.055795,155.0099 v 50.00001 a 50,49.999992 0 0 1 14.64453,-35.35548 50,49.999992 0 0 1 35.355455,-14.64453 z" />
    <path
       id="rect81479-6-0-7-5-6-02-8-5"
       style="fill:#8fbcbb;fill-opacity:1;stroke:#5e81ac;stroke-width:0;stroke-linecap:butt;stroke-linejoin:miter;stroke-miterlimit:4;stroke-dasharray:none"
       d="M 55.056675,5.0092012 V 55.009201 A 50,49.999992 0 0 1 69.701205,19.653731 50,49.999992 0 0 1 105.05666,5.0092012 Z" />
    <path
       id="rect81479-6-0-7-5-6-02-8-5-9"
       style="fill:#8fbcbb;fill-opacity:1;stroke:#5e81ac;stroke-width:0;stroke-linecap:butt;stroke-linejoin:miter;stroke-miterlimit:4;stroke-dasharray:none"
       d="M 155.0575,55.008531 V 105.00853 A 50,49.999992 0 0 1 169.70203,69.653061 50,49.999992 0 0 1 205.0575,55.008531 Z" />
    <path
       id="rect81479-6-0-7-5-6-02-8-5-4-4"
       style="fill:#8fbcbb;fill-opacity:1;stroke:#5e81ac;stroke-width:0;stroke-linecap:butt;stroke-linejoin:miter;stroke-miterlimit:4;stroke-dasharray:none"
       d="M 55.056675,5.0092012 H 5.0566748 a 49.999992,50 0 0 1 35.3554702,14.6445298 49.999992,50 0 0 1 14.64453,35.35547 z" />
    <path
       id="rect81479-6-0-7-5-6-02-8-5-4"
       style="fill:#8fbcbb;fill-opacity:1;stroke:#5e81ac;stroke-width:0;stroke-linecap:butt;stroke-linejoin:miter;stroke-miterlimit:4;stroke-dasharray:none"
       d="m 155.05666,55.009221 h -50 a 49.999992,50 0 0 1 35.35547,14.64453 49.999992,50 0 0 1 14.64453,35.355469 z" />
    <path
       id="rect81479-1"
       style="fill:#5e81ac;fill-opacity:1;stroke:#5e81ac;stroke-width:0;stroke-linecap:butt;stroke-linejoin:miter;stroke-miterlimit:4;stroke-dasharray:none"
       d="m 255.05582,505.00988 a 50,49.999992 0 0 0 35.35547,-14.64453 50,49.999992 0 0 0 14.64453,-35.35547 v -50 h -100 v 100 z" />
    <rect
       style="fill:#5e81ac;fill-opacity:1;stroke:#5e81ac;stroke-width:0;stroke-linecap:butt;stroke-linejoin:miter;stroke-miterlimit:4;stroke-dasharray:none"
       id="rect81479-6-7"
       width="100"
       height="100"
       x="-405.05664"
       y="-505.00922"
       ry="0"
       transform="scale(-1)" />
    <rect
       style="fill:#81a1c1;fill-opacity:1;stroke:#5e81ac;stroke-width:0;stroke-linecap:butt;stroke-linejoin:miter;stroke-miterlimit:4;stroke-dasharray:none"
       id="rect81479-6-6-4"
       width="100"
       height="100"
       x="-505.05664"
       y="-505.00922"
       ry="0"
       transform="scale(-1)" />
    <path
       id="rect81479-6-4-3"
       style="fill:#81a1c1;fill-opacity:1;stroke:#5e81ac;stroke-width:0;stroke-linecap:butt;stroke-linejoin:miter;stroke-miterlimit:4;stroke-dasharray:none"
       d="m 205.05666,405.00919 a 49.999992,50 0 0 0 -14.64453,-35.35547 49.999992,50 0 0 0 -35.35547,-14.64453 50,49.999992 0 0 0 35.35547,-14.64453 50,49.999992 0 0 0 14.64453,-35.35547 H 105.05665 v 100 z" />
    <path
       id="rect81479-6-0-1"
       style="fill:#81a1c1;fill-opacity:1;stroke:#5e81ac;stroke-width:0;stroke-linecap:butt;stroke-linejoin:miter;stroke-miterlimit:4;stroke-dasharray:none"
       d="m 305.05665,405.00919 v -100 h -49.99999 a 50,49.999992 0 0 0 -35.35547,14.64453 50,49.999992 0 0 0 -14.64453,35.35547 v 50 z" />
    <path
       id="rect81479-6-0-7-4"
       style="fill:#8fbcbb;fill-opacity:1;stroke:#5e81ac;stroke-width:0;stroke-linecap:butt;stroke-linejoin:miter;stroke-miterlimit:4;stroke-dasharray:none"
       d="m 55.056665,405.00919 a 50,49.999992 0 0 0 35.35547,-14.64453 50,49.999992 0 0 0 14.644515,-35.35547 v -50 H 55.056665 a 50,49.999992 0 0 0 -35.35547,14.64453 50,49.999992 0 0 0 -14.6445302,35.35547 49.999992,50 0 0 0 14.6445302,35.35547 49.999992,50 0 0 0 35.35547,14.64453 z" />
    <path
       id="rect81479-6-0-7-5-2-6"
       style="fill:#81a1c1;fill-opacity:1;stroke:#5e81ac;stroke-width:0;stroke-linecap:butt;stroke-linejoin:miter;stroke-miterlimit:4;stroke-dasharray:none"
       d="m 55.056665,305.00919 v 50 a 50,49.999992 0 0 1 14.64453,-35.35547 50,49.999992 0 0 1 35.355455,-14.64453 z" />
    <rect
       style="fill:#81a1c1;fill-opacity:1;stroke:#5e81ac;stroke-width:0;stroke-linecap:butt;stroke-linejoin:miter;stroke-miterlimit:4;stroke-dasharray:none"
       id="rect81479-6-04-9"
       width="100"
       height="100"
       x="-405.05664"
       y="-405.00922"
       ry="0"
       transform="scale(-1)" />
    <path
       id="rect81479-6-62-4"
       style="fill:#81a1c1;fill-opacity:1;stroke:#5e81ac;stroke-width:0;stroke-linecap:butt;stroke-linejoin:miter;stroke-miterlimit:4;stroke-dasharray:none"
       d="m 205.05582,505.00988 v -100 h -50 a 50,49.999992 0 0 0 -35.35547,14.64453 50,49.999992 0 0 0 -14.64453,35.35547 v 50 z" />
    <rect
       style="fill:#5e81ac;fill-opacity:1;stroke:#5e81ac;stroke-width:0;stroke-linecap:butt;stroke-linejoin:miter;stroke-miterlimit:4;stroke-dasharray:none"
       id="rect81479-0-2"
       width="100"
       height="100"
       x="-505.0575"
       y="-405.00851"
       ry="0"
       transform="scale(-1)" />
    <path
       id="rect81479-0-5-2"
       style="fill:#5e81ac;fill-opacity:1;stroke:#5e81ac;stroke-width:0;stroke-linecap:butt;stroke-linejoin:miter;stroke-miterlimit:4;stroke-dasharray:none"
       d="M 105.05497,505.01057 V 405.01056 H 55.054985 A 50,49.999992 0 0 0 19.699515,419.65511 50,49.999992 0 0 0 5.0549848,455.01057 H 55.054985 A 50,49.999992 0 0 0 19.699515,469.6551 50,49.999992 0 0 0 5.0549848,505.01057 Z" />
    <path
       id="rect81479-6-0-7-5-50-6"
       style="fill:#5e81ac;fill-opacity:1;stroke:#5e81ac;stroke-width:0;stroke-linecap:butt;stroke-linejoin:miter;stroke-miterlimit:4;stroke-dasharray:none"
       d="m 355.05662,305.00921 v 50 a 50,49.999992 0 0 1 14.64453,-35.35547 50,49.999992 0 0 1 35.35547,-14.64453 z" />
    <path
       id="rect81479-6-0-7-5-50-2-4"
       style="fill:#5e81ac;fill-opacity:1;stroke:#5e81ac;stroke-width:0;stroke-linecap:butt;stroke-linejoin:miter;stroke-miterlimit:4;stroke-dasharray:none"
       d="m 205.05582,405.00988 h -50 a 49.999992,50 0 0 1 35.35547,14.64453 49.999992,50 0 0 1 14.64453,35.35547 z" />
    <path
       id="rect81479-6-0-7-5-50-9-1"
       style="fill:#5e81ac;fill-opacity:1;stroke:#5e81ac;stroke-width:0;stroke-linecap:butt;stroke-linejoin:miter;stroke-miterlimit:4;stroke-dasharray:none"
       d="m 305.05665,305.00921 v 50 a 50,49.999992 0 0 1 14.64453,-35.35547 50,49.999992 0 0 1 35.35547,-14.64453 z" />
    <path
       id="rect81479-6-0-7-5-50-9-4-2"
       style="fill:#5e81ac;fill-opacity:1;stroke:#5e81ac;stroke-width:0;stroke-linecap:butt;stroke-linejoin:miter;stroke-miterlimit:4;stroke-dasharray:none"
       d="m 355.05662,355.00921 v -50 a 50,49.999992 0 0 1 -14.64453,35.35547 50,49.999992 0 0 1 -35.35547,14.64453 z" />
    <path
       id="rect81479-6-0-7-5-50-9-4-3-8"
       style="fill:#5e81ac;fill-opacity:1;stroke:#5e81ac;stroke-width:0;stroke-linecap:butt;stroke-linejoin:miter;stroke-miterlimit:4;stroke-dasharray:none"
       d="m 355.05662,355.00921 h -50 a 49.999992,50 0 0 1 35.35547,14.64453 49.999992,50 0 0 1 14.64453,35.35547 z" />
    <path
       id="rect81479-6-0-7-5-50-9-4-3-5-8"
       style="fill:#5e81ac;fill-opacity:1;stroke:#5e81ac;stroke-width:0;stroke-linecap:butt;stroke-linejoin:miter;stroke-miterlimit:4;stroke-dasharray:none"
       d="m 355.05665,405.00919 h 50 a 49.999992,50 0 0 1 -35.35547,-14.64453 49.999992,50 0 0 1 -14.64453,-35.35547 z" />
    <path
       id="rect81479-6-0-7-5-0-9"
       style="fill:#8fbcbb;fill-opacity:1;stroke:#5e81ac;stroke-width:0;stroke-linecap:butt;stroke-linejoin:miter;stroke-miterlimit:4;stroke-dasharray:none"
       d="m 505.05666,305.00918 v -50 a 50,49.999992 0 0 1 -14.64453,35.35547 50,49.999992 0 0 1 -35.35547,14.64453 z" />
    <path
       id="rect81479-6-0-7-5-36-2"
       style="fill:#8fbcbb;fill-opacity:1;stroke:#5e81ac;stroke-width:0;stroke-linecap:butt;stroke-linejoin:miter;stroke-miterlimit:4;stroke-dasharray:none"
       d="m 405.0566,405.00918 h -50 a 49.999992,50 0 0 1 35.35547,14.64453 49.999992,50 0 0 1 14.64453,35.35547 z" />
    <path
       id="rect81479-6-0-7-5-6-8"
       style="fill:#8fbcbb;fill-opacity:1;stroke:#5e81ac;stroke-width:0;stroke-linecap:butt;stroke-linejoin:miter;stroke-miterlimit:4;stroke-dasharray:none"
       d="m 255.05582,455.00988 v 50 a 50,49.999992 0 0 1 14.64453,-35.35547 50,49.999992 0 0 1 35.35547,-14.64453 z" />
    <path
       id="rect81479-6-0-7-5-6-1-8"
       style="fill:#8fbcbb;fill-opacity:1;stroke:#5e81ac;stroke-width:0;stroke-linecap:butt;stroke-linejoin:miter;stroke-miterlimit:4;stroke-dasharray:none"
       d="m 205.05666,455.0092 v 50 a 50,49.999992 0 0 1 14.64453,-35.35547 50,49.999992 0 0 1 35.35547,-14.64453 z" />
    <path
       id="rect81479-6-0-7-5-6-0-8"
       style="fill:#8fbcbb;fill-opacity:1;stroke:#5e81ac;stroke-width:0;stroke-linecap:butt;stroke-linejoin:miter;stroke-miterlimit:4;stroke-dasharray:none"
       d="m 255.05582,405.00988 v 50 a 50,49.999992 0 0 1 14.64453,-35.35547 50,49.999992 0 0 1 35.35547,-14.64453 z" />
    <path
       id="rect81479-6-0-7-5-6-4-6"
       style="fill:#8fbcbb;fill-opacity:1;stroke:#5e81ac;stroke-width:0;stroke-linecap:butt;stroke-linejoin:miter;stroke-miterlimit:4;stroke-dasharray:none"
       d="m 205.05666,405.00919 v 50.00001 a 50,49.999992 0 0 1 14.64453,-35.35548 50,49.999992 0 0 1 35.35547,-14.64453 z" />
    <path
       id="rect81479-6-0-7-5-04-83"
       style="fill:#5e81ac;fill-opacity:1;stroke:#5e81ac;stroke-width:0;stroke-linecap:butt;stroke-linejoin:miter;stroke-miterlimit:4;stroke-dasharray:none"
       d="m 155.05582,455.00988 v -50 a 50,49.999992 0 0 1 -14.64453,35.35547 50,49.999992 0 0 1 -35.35547,14.64453 z" />
    <path
       id="rect81479-6-0-7-5-04-8-8"
       style="fill:#5e81ac;fill-opacity:1;stroke:#5e81ac;stroke-width:0;stroke-linecap:butt;stroke-linejoin:miter;stroke-miterlimit:4;stroke-dasharray:none"
       d="m 155.05582,455.00988 h 50 a 49.999992,50 0 0 1 -35.35547,-14.64453 49.999992,50 0 0 1 -14.64453,-35.35547 z" />
    <path
       id="rect81479-6-0-7-5-04-8-0-3"
       style="fill:#5e81ac;fill-opacity:1;stroke:#5e81ac;stroke-width:0;stroke-linecap:butt;stroke-linejoin:miter;stroke-miterlimit:4;stroke-dasharray:none"
       d="m 155.05582,455.00988 v 50 a 50,49.999992 0 0 1 14.64453,-35.35547 50,49.999992 0 0 1 35.35547,-14.64453 z" />
    <path
       id="rect81479-6-0-7-5-04-8-0-4-3"
       style="fill:#5e81ac;fill-opacity:1;stroke:#5e81ac;stroke-width:0;stroke-linecap:butt;stroke-linejoin:miter;stroke-miterlimit:4;stroke-dasharray:none"
       d="m 155.05582,455.00988 h -50 a 49.999992,50 0 0 1 35.35547,14.64453 49.999992,50 0 0 1 14.64453,35.35547 z" />
    <path
       id="rect81479-6-0-7-5-7-3"
       style="fill:#81a1c1;fill-opacity:1;stroke:#5e81ac;stroke-width:0;stroke-linecap:butt;stroke-linejoin:miter;stroke-miterlimit:4;stroke-dasharray:none"
       d="m 105.05582,505.00988 h 50 a 49.999992,50 0 0 1 -35.35547,-14.64453 49.999992,50 0 0 1 -14.64453,-35.35547 z" />
    <path
       id="rect81479-6-0-7-5-5-80"
       style="fill:#5e81ac;fill-opacity:1;stroke:#5e81ac;stroke-width:0;stroke-linecap:butt;stroke-linejoin:miter;stroke-miterlimit:4;stroke-dasharray:none"
       d="m 205.05582,505.00988 v -50 a 50,49.999992 0 0 1 -14.64453,35.35547 50,49.999992 0 0 1 -35.35547,14.64453 z" />
    <path
       id="rect81479-6-0-7-5-5-8-4"
       style="fill:#5e81ac;fill-opacity:1;stroke:#5e81ac;stroke-width:0;stroke-linecap:butt;stroke-linejoin:miter;stroke-miterlimit:4;stroke-dasharray:none"
       d="m 305.05665,405.00919 h 50 a 49.999992,50 0 0 1 -35.35547,-14.64453 49.999992,50 0 0 1 -14.64453,-35.35547 z" />
    <path
       id="rect81479-6-0-7-5-5-8-2-7"
       style="fill:#5e81ac;fill-opacity:1;stroke:#5e81ac;stroke-width:0;stroke-linecap:butt;stroke-linejoin:miter;stroke-miterlimit:4;stroke-dasharray:none"
       d="m 105.05582,505.00988 h 50 a 49.999992,50 0 0 1 -35.35547,-14.64453 49.999992,50 0 0 1 -14.64453,-35.35547 z" />
    <path
       id="rect81479-6-0-7-5-4-6"
       style="fill:#5e81ac;fill-opacity:1;stroke:#5e81ac;stroke-width:0;stroke-linecap:butt;stroke-linejoin:miter;stroke-miterlimit:4;stroke-dasharray:none"
       d="m 205.0575,355.00849 v 50 a 50,49.999992 0 0 1 14.64453,-35.35547 50,49.999992 0 0 1 35.35547,-14.64453 z" />
    <path
       id="rect81479-6-0-7-5-4-9-8"
       style="fill:#5e81ac;fill-opacity:1;stroke:#5e81ac;stroke-width:0;stroke-linecap:butt;stroke-linejoin:miter;stroke-miterlimit:4;stroke-dasharray:none"
       d="m 155.05666,305.00919 v 50 a 50,49.999992 0 0 1 14.64453,-35.35547 50,49.999992 0 0 1 35.35547,-14.64453 z" />
    <path
       id="rect81479-6-0-7-5-4-9-1-9"
       style="fill:#5e81ac;fill-opacity:1;stroke:#5e81ac;stroke-width:0;stroke-linecap:butt;stroke-linejoin:miter;stroke-miterlimit:4;stroke-dasharray:none"
       d="m 105.05665,305.00919 v 50 a 50,49.999992 0 0 1 14.64454,-35.35547 50,49.999992 0 0 1 35.35547,-14.64453 z" />
    <path
       id="rect81479-6-0-7-5-4-9-1-7-0"
       style="fill:#5e81ac;fill-opacity:1;stroke:#5e81ac;stroke-width:0;stroke-linecap:butt;stroke-linejoin:miter;stroke-miterlimit:4;stroke-dasharray:none"
       d="m 105.05747,355.00852 v 50 a 50,49.999992 0 0 1 14.64454,-35.35547 50,49.999992 0 0 1 35.35547,-14.64453 z" />
    <path
       id="rect81479-6-0-7-5-3-6"
       style="fill:#5e81ac;fill-opacity:1;stroke:#5e81ac;stroke-width:0;stroke-linecap:butt;stroke-linejoin:miter;stroke-miterlimit:4;stroke-dasharray:none"
       d="m 305.05749,355.00849 v -50 a 50,49.999992 0 0 1 -14.64453,35.35547 50,49.999992 0 0 1 -35.35546,14.64453 z" />
    <path
       id="rect81479-6-0-7-5-3-2-8"
       style="fill:#5e81ac;fill-opacity:1;stroke:#5e81ac;stroke-width:0;stroke-linecap:butt;stroke-linejoin:miter;stroke-miterlimit:4;stroke-dasharray:none"
       d="m 255.0575,355.00849 v -50 a 50,49.999992 0 0 1 -14.64453,35.35547 50,49.999992 0 0 1 -35.35547,14.64453 z" />
    <path
       id="rect81479-6-0-7-5-3-2-1-7"
       style="fill:#5e81ac;fill-opacity:1;stroke:#5e81ac;stroke-width:0;stroke-linecap:butt;stroke-linejoin:miter;stroke-miterlimit:4;stroke-dasharray:none"
       d="m 255.0575,305.00849 v 50 a 50,49.999992 0 0 1 14.64453,-35.35547 50,49.999992 0 0 1 35.35546,-14.64453 z" />
    <path
       id="rect81479-6-0-7-5-3-9-9"
       style="fill:#5e81ac;fill-opacity:1;stroke:#5e81ac;stroke-width:0;stroke-linecap:butt;stroke-linejoin:miter;stroke-miterlimit:4;stroke-dasharray:none"
       d="m 305.05665,405.00919 v -50 a 50,49.999992 0 0 1 -14.64453,35.35547 50,49.999992 0 0 1 -35.35546,14.64453 z" />
    <path
       id="rect81479-6-0-7-5-3-2-9-0"
       style="fill:#5e81ac;fill-opacity:1;stroke:#5e81ac;stroke-width:0;stroke-linecap:butt;stroke-linejoin:miter;stroke-miterlimit:4;stroke-dasharray:none"
       d="m 255.05666,405.00919 v -50 a 50,49.999992 0 0 1 -14.64453,35.35547 50,49.999992 0 0 1 -35.35547,14.64453 z" />
    <path
       id="rect81479-6-0-7-5-3-2-1-1-3"
       style="fill:#5e81ac;fill-opacity:1;stroke:#5e81ac;stroke-width:0;stroke-linecap:butt;stroke-linejoin:miter;stroke-miterlimit:4;stroke-dasharray:none"
       d="m 255.05666,355.00919 v 50 a 50,49.999992 0 0 1 14.64453,-35.35547 50,49.999992 0 0 1 35.35546,-14.64453 z" />
    <path
       id="rect81479-6-0-7-5-27-3"
       style="fill:#5e81ac;fill-opacity:1;stroke:#5e81ac;stroke-width:0;stroke-linecap:butt;stroke-linejoin:miter;stroke-miterlimit:4;stroke-dasharray:none"
       d="m 405.05662,305.00921 v -50 a 50,49.999992 0 0 1 -14.64453,35.35547 50,49.999992 0 0 1 -35.35547,14.64453 z" />
    <path
       id="rect81479-6-0-7-5-27-0-3"
       style="fill:#5e81ac;fill-opacity:1;stroke:#5e81ac;stroke-width:0;stroke-linecap:butt;stroke-linejoin:miter;stroke-miterlimit:4;stroke-dasharray:none"
       d="m 155.05666,355.00919 v -50 a 50,49.999992 0 0 1 -14.64453,35.35547 50,49.999992 0 0 1 -35.35548,14.64453 z" />
    <path
       id="rect81479-6-0-7-5-6-2-7"
       style="fill:#8fbcbb;fill-opacity:1;stroke:#5e81ac;stroke-width:0;stroke-linecap:butt;stroke-linejoin:miter;stroke-miterlimit:4;stroke-dasharray:none"
       d="m 455.0575,355.0085 v 50 a 50,49.999992 0 0 1 14.64453,-35.35547 50,49.999992 0 0 1 35.35547,-14.64453 z" />
    <path
       id="rect81479-6-0-7-5-6-22-3"
       style="fill:#8fbcbb;fill-opacity:1;stroke:#5e81ac;stroke-width:0;stroke-linecap:butt;stroke-linejoin:miter;stroke-miterlimit:4;stroke-dasharray:none"
       d="m 405.0575,355.0085 v 50 a 50,49.999992 0 0 1 14.64453,-35.35547 50,49.999992 0 0 1 35.35548,-14.64453 z" />
    <path
       id="rect81479-6-0-7-5-6-05-2"
       style="fill:#8fbcbb;fill-opacity:1;stroke:#5e81ac;stroke-width:0;stroke-linecap:butt;stroke-linejoin:miter;stroke-miterlimit:4;stroke-dasharray:none"
       d="m 455.05666,305.00918 v 50.00001 a 50,49.999992 0 0 1 14.64453,-35.35547 50,49.999992 0 0 1 35.35547,-14.64454 z" />
    <path
       id="rect81479-6-0-7-5-6-5-6"
       style="fill:#8fbcbb;fill-opacity:1;stroke:#5e81ac;stroke-width:0;stroke-linecap:butt;stroke-linejoin:miter;stroke-miterlimit:4;stroke-dasharray:none"
       d="m 355.05661,455.00918 v 50 a 50,49.999992 0 0 1 14.64453,-35.35547 50,49.999992 0 0 1 35.35547,-14.64453 z" />
    <path
       id="rect81479-6-0-7-5-6-29-5"
       style="fill:#8fbcbb;fill-opacity:1;stroke:#5e81ac;stroke-width:0;stroke-linecap:butt;stroke-linejoin:miter;stroke-miterlimit:4;stroke-dasharray:none"
       d="m 305.05661,455.00918 v 50 a 50,49.999992 0 0 1 14.64453,-35.35547 50,49.999992 0 0 1 35.35547,-14.64453 z" />
    <path
       id="rect81479-6-0-7-5-6-02-2"
       style="fill:#8fbcbb;fill-opacity:1;stroke:#5e81ac;stroke-width:0;stroke-linecap:butt;stroke-linejoin:miter;stroke-miterlimit:4;stroke-dasharray:none"
       d="m 305.05661,405.00918 v 50 a 50,49.999992 0 0 1 14.64453,-35.35547 50,49.999992 0 0 1 35.35547,-14.64453 z" />
    <path
       id="rect81479-6-0-7-5-6-02-8-65"
       style="fill:#8fbcbb;fill-opacity:1;stroke:#5e81ac;stroke-width:0;stroke-linecap:butt;stroke-linejoin:miter;stroke-miterlimit:4;stroke-dasharray:none"
       d="m 305.05582,455.00988 v -50 a 50,49.999992 0 0 1 -14.64453,35.35547 50,49.999992 0 0 1 -35.35547,14.64453 z" />
    <path
       id="rect81479-6-0-7-5-6-02-8-3-8"
       style="fill:#8fbcbb;fill-opacity:1;stroke:#5e81ac;stroke-width:0;stroke-linecap:butt;stroke-linejoin:miter;stroke-miterlimit:4;stroke-dasharray:none"
       d="m 255.05582,505.00988 v -50 a 50,49.999992 0 0 1 -14.64453,35.35547 50,49.999992 0 0 1 -35.35547,14.64453 z" />
    <path
       id="rect81479-6-0-7-5-6-02-8-8-7"
       style="fill:#8fbcbb;fill-opacity:1;stroke:#5e81ac;stroke-width:0;stroke-linecap:butt;stroke-linejoin:miter;stroke-miterlimit:4;stroke-dasharray:none"
       d="m 505.05666,405.00919 v -50 a 50,49.999992 0 0 1 -14.64453,35.35547 50,49.999992 0 0 1 -35.35547,14.64453 z" />
    <path
       id="rect81479-6-0-7-5-6-02-8-0-9"
       style="fill:#8fbcbb;fill-opacity:1;stroke:#5e81ac;stroke-width:0;stroke-linecap:butt;stroke-linejoin:miter;stroke-miterlimit:4;stroke-dasharray:none"
       d="m 455.05666,405.00919 v -50 a 50,49.999992 0 0 1 -14.64453,35.35547 50,49.999992 0 0 1 -35.35548,14.64453 z" />
    <path
       id="rect81479-6-0-7-5-6-02-8-4-6"
       style="fill:#8fbcbb;fill-opacity:1;stroke:#5e81ac;stroke-width:0;stroke-linecap:butt;stroke-linejoin:miter;stroke-miterlimit:4;stroke-dasharray:none"
       d="m 105.05582,505.00988 v -50 a 50,49.999992 0 0 1 -14.644515,35.35547 50,49.999992 0 0 1 -35.35547,14.64453 z" />
    <path
       id="rect81479-6-0-7-5-6-02-8-09-0"
       style="fill:#8fbcbb;fill-opacity:1;stroke:#5e81ac;stroke-width:0;stroke-linecap:butt;stroke-linejoin:miter;stroke-miterlimit:4;stroke-dasharray:none"
       d="m 505.05666,355.00919 v -50.00001 a 50,49.999992 0 0 1 -14.64453,35.35548 50,49.999992 0 0 1 -35.35547,14.64453 z" />
    <path
       id="rect81479-6-0-7-5-6-02-8-1-4"
       style="fill:#8fbcbb;fill-opacity:1;stroke:#5e81ac;stroke-width:0;stroke-linecap:butt;stroke-linejoin:miter;stroke-miterlimit:4;stroke-dasharray:none"
       d="m 255.05582,455.00988 v -50 a 50,49.999992 0 0 1 -14.64453,35.35547 50,49.999992 0 0 1 -35.35547,14.64453 z" />
    <path
       id="rect81479-6-0-7-5-6-02-8-9-1"
       style="fill:#8fbcbb;fill-opacity:1;stroke:#5e81ac;stroke-width:0;stroke-linecap:butt;stroke-linejoin:miter;stroke-miterlimit:4;stroke-dasharray:none"
       d="m 405.05577,505.00987 v -50 a 50,49.999992 0 0 1 -14.64453,35.35547 50,49.999992 0 0 1 -35.35547,14.64453 z" />
    <path
       id="rect81479-6-0-7-5-6-02-8-6-0"
       style="fill:#8fbcbb;fill-opacity:1;stroke:#5e81ac;stroke-width:0;stroke-linecap:butt;stroke-linejoin:miter;stroke-miterlimit:4;stroke-dasharray:none"
       d="m 355.05577,505.00987 v -50 a 50,49.999992 0 0 1 -14.64453,35.35547 50,49.999992 0 0 1 -35.35547,14.64453 z" />
    <path
       id="rect81479-6-0-7-5-6-02-8-2-4"
       style="fill:#8fbcbb;fill-opacity:1;stroke:#5e81ac;stroke-width:0;stroke-linecap:butt;stroke-linejoin:miter;stroke-miterlimit:4;stroke-dasharray:none"
       d="m 455.0575,355.0085 v -50.00001 a 50,49.999992 0 0 1 -14.64453,35.35548 50,49.999992 0 0 1 -35.35548,14.64453 z" />
    <path
       id="rect81479-6-0-7-5-6-02-8-5-8"
       style="fill:#8fbcbb;fill-opacity:1;stroke:#5e81ac;stroke-width:0;stroke-linecap:butt;stroke-linejoin:miter;stroke-miterlimit:4;stroke-dasharray:none"
       d="m 455.05662,505.0092 v -50 a 50,49.999992 0 0 1 -14.64453,35.35547 50,49.999992 0 0 1 -35.35548,14.64453 z" />
    <path
       id="rect81479-6-0-7-5-6-02-8-5-9-7"
       style="fill:#8fbcbb;fill-opacity:1;stroke:#5e81ac;stroke-width:0;stroke-linecap:butt;stroke-linejoin:miter;stroke-miterlimit:4;stroke-dasharray:none"
       d="m 355.05577,455.00987 v -50 a 50,49.999992 0 0 1 -14.64453,35.35547 50,49.999992 0 0 1 -35.35547,14.64453 z" />
    <path
       id="rect81479-6-0-7-5-6-02-8-5-4-4-0"
       style="fill:#8fbcbb;fill-opacity:1;stroke:#5e81ac;stroke-width:0;stroke-linecap:butt;stroke-linejoin:miter;stroke-miterlimit:4;stroke-dasharray:none"
       d="m 455.05662,505.0092 h 50 A 49.999992,50 0 0 1 469.70115,490.36467 49.999992,50 0 0 1 455.05662,455.0092 Z" />
    <path
       id="rect81479-6-0-7-5-6-02-8-5-4-8"
       style="fill:#8fbcbb;fill-opacity:1;stroke:#5e81ac;stroke-width:0;stroke-linecap:butt;stroke-linejoin:miter;stroke-miterlimit:4;stroke-dasharray:none"
       d="m 355.05661,455.00918 h 50 a 49.999992,50 0 0 1 -35.35547,-14.64453 49.999992,50 0 0 1 -14.64453,-35.35547 z" />
  </g>
</svg>
