<?xml version="1.0" encoding="UTF-8" standalone="no"?>
<!-- Created with Inkscape (http://www.inkscape.org/) -->

<svg
   width="512"
   height="512"
   viewBox="0 0 512 512"
   version="1.1"
   id="svg5"
   inkscape:version="1.1.2 (0a00cf5339, 2022-02-04, custom)"
   sodipodi:docname="tileWebsite.svg"
   xmlns:inkscape="http://www.inkscape.org/namespaces/inkscape"
   xmlns:sodipodi="http://sodipodi.sourceforge.net/DTD/sodipodi-0.dtd"
   xmlns="http://www.w3.org/2000/svg"
   xmlns:svg="http://www.w3.org/2000/svg">
  <sodipodi:namedview
     id="namedview7"
     pagecolor="#505050"
     bordercolor="#eeeeee"
     borderopacity="1"
     inkscape:pageshadow="0"
     inkscape:pageopacity="0"
     inkscape:pagecheckerboard="0"
     inkscape:document-units="px"
     showgrid="false"
     inkscape:zoom="1.1575153"
     inkscape:cx="2.5917584"
     inkscape:cy="309.71513"
     inkscape:window-width="1900"
     inkscape:window-height="1015"
     inkscape:window-x="8"
     inkscape:window-y="53"
     inkscape:window-maximized="1"
     inkscape:current-layer="layer1"
     showguides="true"
     inkscape:guide-bbox="true">
    <sodipodi:guide
       position="-568.45901,237.27361"
       orientation="1,0"
       id="guide1399" />
  </sodipodi:namedview>
  <defs
     id="defs2">
    <inkscape:perspective
       sodipodi:type="inkscape:persp3d"
       inkscape:vp_x="0 : 256 : 1"
       inkscape:vp_y="0 : 1000 : 0"
       inkscape:vp_z="512 : 256 : 1"
       inkscape:persp3d-origin="256 : 170.66667 : 1"
       id="perspective14120" />
  </defs>
  <g
     inkscape:label="Layer 1"
     inkscape:groupmode="layer"
     id="layer1">
    <text
       xml:space="preserve"
       style="font-style:normal;font-weight:normal;font-size:40px;line-height:1.25;font-family:sans-serif;white-space:pre;inline-size:268.841;fill:#eceff4;fill-opacity:1;stroke:none"
       x="73.156067"
       y="87.591827"
       id="text20918" />
    <g
       id="g3247"
       transform="translate(-0.58206227,-1.6578646)">
      <rect
         style="fill:#88c0d0;stroke:#88c0d0;stroke-width:2.01941"
         id="rect3035"
         width="494.2186"
         height="494.2146"
         x="9.742053"
         y="10.819474" />
      <rect
         style="fill:#bf616a;stroke:#bf616a;stroke-width:0.942454"
         id="rect31-3-6-3"
         width="99.057999"
         height="99.057549"
         x="8.6685343"
         y="207.86234" />
      <rect
         style="fill:#d08770;stroke:#d08770;stroke-width:0.942454"
         id="rect31-3-6-3-5"
         width="99.057999"
         height="99.057549"
         x="107.72655"
         y="207.86234" />
      <rect
         style="fill:#ebcb8b;stroke:#ebcb8b;stroke-width:0.942454"
         id="rect31-3-6-3-5-3"
         width="99.057999"
         height="99.057549"
         x="206.78453"
         y="207.86234" />
      <rect
         style="fill:#a3be8c;stroke:#a3be8c;stroke-width:0.942454"
         id="rect31-3-6-3-5-3-5"
         width="99.057999"
         height="99.057549"
         x="305.84256"
         y="207.86234" />
      <rect
         style="fill:#b48ead;stroke:#b48ead;stroke-width:0.942454"
         id="rect31-3-6-3-5-3-5-6"
         width="99.057999"
         height="99.057549"
         x="404.90054"
         y="207.86234" />
      <path
         id="rect31"
         style="fill:#5e81ac;stroke:#5e81ac;stroke-width:0.942454"
         d="m 355.37017,9.744096 c -27.439,0 -49.5293,22.0903 -49.5293,49.5293 v 49.529294 h 99.0586 V 9.744096 Z" />
      <rect
         style="fill:#5e81ac;stroke:#5e81ac;stroke-width:0.942454"
         id="rect31-3"
         width="99.057549"
         height="99.057549"
         x="8.6649961"
         y="9.7431774" />
      <rect
         style="fill:#81a1c1;stroke:#81a1c1;stroke-width:0.942454"
         id="rect31-3-6"
         width="99.057549"
         height="99.057549"
         x="206.78256"
         y="108.80072" />
      <path
         id="rect31-3-6-7"
         style="fill:#81a1c1;stroke:#81a1c1;stroke-width:0.942454"
         d="m 107.72377,108.80378 c 0.001,27.43809 22.09095,49.52734 49.5293,49.52734 -27.439,0 -49.5293,22.0903 -49.5293,49.5293 h 99.0586 v -99.05664 z" />
      <path
         id="rect31-3-6-7-5"
         style="fill:#81a1c1;stroke:#81a1c1;stroke-width:0.942454"
         d="m 206.78201,9.746236 v 99.056644 h 49.52929 c 27.439,0 49.5293,-22.090304 49.5293,-49.529304 V 9.746236 Z" />
      <rect
         style="fill:#81a1c1;stroke:#81a1c1;stroke-width:0.942454"
         id="rect31-3-6-7-5-3"
         width="99.057549"
         height="99.057549"
         x="305.84195"
         y="108.80392" />
      <path
         id="rect31-3-6-7-5-3-5"
         style="fill:#81a1c1;stroke:#81a1c1;stroke-width:0.942454"
         d="M 107.72342,9.744096 V 108.8027 h 49.52929 c 27.439,0 49.5293,-22.090304 49.5293,-49.529304 v -49.5293 z" />
      <rect
         style="fill:#5e81ac;stroke:#5e81ac;stroke-width:0.942454"
         id="rect31-3-6-7-5-3-5-6"
         width="99.057549"
         height="99.057549"
         x="8.6661253"
         y="108.80295" />
      <path
         id="rect31-3-6-7-5-3-5-6-2"
         style="fill:#5e81ac;stroke:#5e81ac;stroke-width:0.942454"
         d="m 404.89724,108.80269 v 99.05859 h 49.52929 c 27.439,0 49.5293,-22.0903 49.5293,-49.5293 h -49.5293 c 27.439,0 49.5293,-22.09029 49.5293,-49.52929 z" />
      <path
         id="rect31-3-6-7-5-3-5-6-2-9-1"
         style="fill:#8fbcbb;stroke:#8fbcbb;stroke-width:0.942454"
         d="m 454.42876,9.746046 c -27.43894,0 -49.52929,22.09035 -49.52929,49.52929 v 49.527354 h 49.52929 c 27.43829,0 49.52825,-22.089324 49.5293,-49.527354 0,-6.5e-4 0,-0.001 0,-0.002 -10e-4,-27.43803 -22.09101,-49.52734 -49.5293,-49.52734 z" />
      <path
         id="rect31-3-6-7-5-3-5-6-2-9-1-2-8"
         style="fill:#8fbcbb;stroke:#8fbcbb;stroke-width:0.471228"
         d="M 355.37017,108.80288 V 59.273486 c 0,27.439 -22.09039,49.529394 -49.52939,49.529394 z" />
      <path
         id="rect31-3-6-7-5-3-5-6-2-9-1-2-8-7"
         style="fill:#5e81ac;stroke:#5e81ac;stroke-width:0.471228"
         d="m 157.25262,59.273486 v 49.529394 c 0,-27.439004 22.09039,-49.529394 49.52939,-49.529394 z" />
      <path
         id="rect31-3-6-7-5-3-5-6-2-9-1-2-8-7-7"
         style="fill:#5e81ac;stroke:#5e81ac;stroke-width:0.471228"
         d="m 157.25262,59.273486 h -49.52939 c 27.439,0 49.52939,22.09039 49.52939,49.529394 z" />
      <path
         id="rect31-3-6-7-5-3-5-6-2-9-1-2-8-7-7-4"
         style="fill:#5e81ac;stroke:#5e81ac;stroke-width:0.471228"
         d="M 157.25262,59.273486 V 9.744096 c 0,27.439 -22.09039,49.52939 -49.52939,49.52939 z" />
      <path
         id="rect31-3-6-7-5-3-5-6-2-9-1-2-8-7-7-4-5"
         style="fill:#5e81ac;stroke:#5e81ac;stroke-width:0.471228"
         d="m 157.25262,59.273486 h 49.52939 c -27.439,0 -49.52939,-22.09039 -49.52939,-49.52939 z" />
      <path
         id="rect31-3-6-7-5-3-5-6-2-9-1-2-8-7-7-4-2"
         style="fill:#5e81ac;stroke:#5e81ac;stroke-width:0.471228"
         d="m 404.89947,108.80391 h -49.52939 c 27.439,0 49.52939,22.09039 49.52939,49.52939 z" />
      <path
         id="rect31-3-6-7-5-3-5-6-2-9-1-2-8-7-7-4-2-4"
         style="fill:#5e81ac;stroke:#5e81ac;stroke-width:0.471228"
         d="m 107.72372,9.744276 v 49.52939 c 0,-27.439 22.09039,-49.52939 49.52939,-49.52939 z" />
      <path
         id="rect31-3-6-7-5-3-5-6-2-9-1-2-8-7-7-4-2-44"
         style="fill:#5e81ac;stroke:#5e81ac;stroke-width:0.471228"
         d="m 404.89947,207.86147 h -49.52939 c 27.439,0 49.52939,-22.09039 49.52939,-49.52939 z" />
      <path
         id="rect31-3-6-7-5-3-5-6-2-9-1-2-8-7-7-4-2-4-3"
         style="fill:#5e81ac;stroke:#5e81ac;stroke-width:0.471228"
         d="M 107.72372,108.80184 V 59.272446 c 0,27.439 22.09039,49.529394 49.52939,49.529394 z" />
      <path
         id="rect31-3-6-7-5-3-5-6-2-9-1-2-8-7-7-4-2-4-7"
         style="fill:#81a1c1;stroke:#81a1c1;stroke-width:0.471228"
         d="M 454.42886,108.80269 V 59.273296 c 0,27.439 -22.09039,49.529394 -49.52939,49.529394 z" />
      <path
         id="rect31-3-6-7-5-3-5-6-2-9-1-2-8-7-7-4-2-4-7-4"
         style="fill:#5e81ac;stroke:#5e81ac;stroke-width:0.471228"
         d="m 355.37008,158.3333 v 49.52939 c 0,-27.439 22.09039,-49.52939 49.52939,-49.52939 z" />
      <path
         id="rect31-3-6-7-5-3-5-6-2-9-1-2-8-7-7-4-2-4-7-88"
         style="fill:#5e81ac;stroke:#5e81ac;stroke-width:0.471228"
         d="m 355.37008,158.33208 h 49.52939 c -27.439,0 -49.52939,-22.09039 -49.52939,-49.52939 z" />
      <path
         id="rect31-3-6-7-5-3-5-6-2-9-1-2-8-7-7-4-2-4-7-8"
         style="fill:#5e81ac;stroke:#5e81ac;stroke-width:0.471228"
         d="m 355.37008,207.86147 v -49.52939 c 0,27.439 -22.09039,49.52939 -49.52939,49.52939 z" />
      <path
         id="rect31-3-6-7-5-3-5-6-2-9-1-2-8-7-7-4-2-4-7-8-6"
         style="fill:#5e81ac;stroke:#5e81ac;stroke-width:0.471228"
         d="m 355.37008,108.80391 h -49.52939 c 27.439,0 49.52939,22.09039 49.52939,49.52939 z" />
      <path
         id="rect31-3-6-7-5-3-5-6-2-9-1-2-8-7-7-4-2-5"
         style="fill:#5e81ac;stroke:#5e81ac;stroke-width:0.471228"
         d="m 206.78201,9.744096 h -49.52939 c 27.439,0 49.52939,22.09039 49.52939,49.52939 z" />
      <path
         id="rect31-3-6-7-5-3-5-6-2-9-1-2-8-7-3"
         style="fill:#8fbcbb;stroke:#8fbcbb;stroke-width:0.471228"
         d="m 8.6668106,207.86142 v 49.52938 c 0,-27.439 22.0903904,-49.52938 49.5293934,-49.52938 z" />
      <path
         id="rect31-3-6-7-5-3-5-6-2-9-1-2-8-7-47"
         style="fill:#5e81ac;stroke:#5e81ac;stroke-width:0.471228"
         d="m 206.78201,59.273486 v 49.529394 c 0,-27.439004 22.09038,-49.529394 49.52938,-49.529394 z" />
      <path
         id="rect31-3-6-7-5-3-5-6-2-9-1-2-8-7-0"
         style="fill:#5e81ac;stroke:#5e81ac;stroke-width:0.471228"
         d="m 256.31139,59.273486 v 49.529394 c 0,-27.439004 22.09039,-49.529394 49.52939,-49.529394 z" />
      <path
         id="rect31-3-6-7-5-3-5-6-2-9-1-2-8-7-0-6"
         style="fill:#5e81ac;stroke:#5e81ac;stroke-width:0.471228"
         d="M 256.31139,108.80288 V 59.273486 c 0,27.439 -22.09039,49.529394 -49.52938,49.529394 z" />
      <path
         id="rect31-3-6-7-5-3-5-6-2-9-1-2-8-7-0-6-3"
         style="fill:#5e81ac;stroke:#5e81ac;stroke-width:0.471228"
         d="M 305.84078,59.273486 V 9.744096 c 0,27.439 -22.09039,49.52939 -49.52939,49.52939 z" />
      <path
         id="rect31-3-6-7-5-3-5-6-2-9-1-2-8-7-0-2"
         style="fill:#5e81ac;stroke:#5e81ac;stroke-width:0.471228"
         d="m 256.31139,9.744096 v 49.52939 c 0,-27.439 22.09039,-49.52939 49.52939,-49.52939 z" />
      <path
         id="rect31-3-6-7-5-3-5-6-2-9-1-2-8-7-0-6-0"
         style="fill:#5e81ac;stroke:#5e81ac;stroke-width:0.471228"
         d="M 256.31139,59.273486 V 9.744096 c 0,27.439 -22.09039,49.52939 -49.52938,49.52939 z" />
      <path
         id="rect31-3-6-7-5-3-5-6-2-9-1-2-8-7-0-6-3-6"
         style="fill:#5e81ac;stroke:#5e81ac;stroke-width:0.471228"
         d="m 206.78255,207.85828 v -49.52939 c 0,27.439 -22.09039,49.52939 -49.52939,49.52939 z" />
      <path
         id="rect31-3-6-7-5-3-5-6-2-9-1-2-8-7-0-2-1"
         style="fill:#5e81ac;stroke:#5e81ac;stroke-width:0.471228"
         d="m 157.25307,158.33112 v 49.52939 c 0,-27.439 22.09039,-49.52939 49.52939,-49.52939 z" />
      <path
         id="rect31-3-6-7-5-3-5-6-2-9-1-2-8-7-0-6-0-5"
         style="fill:#5e81ac;stroke:#5e81ac;stroke-width:0.471228"
         d="m 157.25307,207.86051 v -49.52939 c 0,27.439 -22.09039,49.52939 -49.52939,49.52939 z" />
      <path
         id="rect31-3-6-7-5-3-5-6-2-9-1-2-8-7-0-6-3-6-5"
         style="fill:#5e81ac;stroke:#5e81ac;stroke-width:0.471228"
         d="m 206.78246,158.33112 v -49.52939 c 0,27.439 -22.09039,49.52939 -49.52939,49.52939 z" />
      <path
         id="rect31-3-6-7-5-3-5-6-2-9-1-2-8-7-4"
         style="fill:#8fbcbb;stroke:#8fbcbb;stroke-width:0.471228"
         d="m 58.196204,207.86142 v -49.52939 c 0,27.439 -22.090393,49.52939 -49.5293934,49.52939 z" />
      <path
         id="rect31-3-6-7-5-3-5-6-2-9-1-2-8-7-4-7"
         style="fill:#8fbcbb;stroke:#8fbcbb;stroke-width:0.471228"
         d="M 107.72323,59.273486 V 9.744096 c 0,27.439 -22.090376,49.52939 -49.529376,49.52939 z" />
      <path
         id="rect31-3-6-7-5-3-5-6-2-9-1-2-8-7-4-7-8"
         style="fill:#8fbcbb;stroke:#8fbcbb;stroke-width:0.471228"
         d="M 58.193844,59.273486 V 9.744096 c 0,27.439 -22.09038,49.52939 -49.5293804,49.52939 z" />
      <path
         id="rect31-3-6-7-5-3-5-6-2-9-1-2-8-7-4-7-8-4"
         style="fill:#8fbcbb;stroke:#8fbcbb;stroke-width:0.471228"
         d="M 8.6649936,108.80073 H 58.194384 c -27.439,0 -49.5293904,-22.090384 -49.5293904,-49.529384 z" />
      <path
         id="rect31-3-6-7-5-3-5-6-2-9-1-2-8-7-4-7-8-4-5"
         style="fill:#8fbcbb;stroke:#8fbcbb;stroke-width:0.471228"
         d="M 107.72254,108.80073 V 59.271336 c 0,27.439 -22.090376,49.529394 -49.529376,49.529394 z" />
      <path
         id="rect31-3-6-7-5-3-5-6-2-9-1-2-8-7-4-7-8-4-5-0"
         style="fill:#8fbcbb;stroke:#8fbcbb;stroke-width:0.471228"
         d="M 58.193854,59.273486 H 8.6644636 c 27.4390104,0 49.5293904,22.09038 49.5293904,49.529384 z" />
      <path
         id="rect31-3-6-7-5-3-5-6-2-9-1-2-8-7-4-7-8-4-5-0-3"
         style="fill:#8fbcbb;stroke:#8fbcbb;stroke-width:0.471228"
         d="m 58.193854,59.273486 v 49.529394 c 0,-27.439014 22.09038,-49.529394 49.529376,-49.529394 z" />
      <path
         id="rect31-3-6-7-5-3-5-6-2-9-1-2-8-7-4-7-8-4-5-0-3-6"
         style="fill:#8fbcbb;stroke:#8fbcbb;stroke-width:0.471228"
         d="m 256.31139,108.80288 v 49.52939 c 0,-27.43901 22.09038,-49.52939 49.52938,-49.52939 z" />
      <path
         id="rect31-3-6-7-5-3-5-6-2-9-1-2-8-7-4-7-8-4-5-0-3-6-1"
         style="fill:#8fbcbb;stroke:#8fbcbb;stroke-width:0.471228"
         d="M 256.31139,108.80288 H 206.782 c 27.439,0 49.52939,22.09038 49.52939,49.52938 z" />
      <path
         id="rect31-3-6-7-5-3-5-6-2-9-1-2-8-7-5"
         style="fill:#8fbcbb;stroke:#8fbcbb;stroke-width:0.471228"
         d="m 8.6644636,9.744096 v 49.52939 c 0,-27.439 22.0903904,-49.52939 49.5293904,-49.52939 z" />
      <path
         id="rect31-3-6-7-5-3-5-6-2-9-1-2-8-1"
         style="fill:#8fbcbb;stroke:#8fbcbb;stroke-width:0.471228"
         d="M 404.89956,108.80288 V 59.273486 c 0,27.439 -22.09039,49.529394 -49.52939,49.529394 z" />
      <path
         id="rect31-3-6-7-5-3-5-6-2-9-1-2-8-7-5-9"
         style="fill:#8fbcbb;stroke:#8fbcbb;stroke-width:0.471228"
         d="m 58.193854,9.744096 v 49.52939 c 0,-27.439 22.09039,-49.52939 49.529386,-49.52939 z" />
      <path
         id="rect31-3-6-7-5-3-5-6-2-9-1-2-8-9"
         style="fill:#8fbcbb;stroke:#8fbcbb;stroke-width:0.471228"
         d="M 355.37017,59.273486 V 9.744096 c 0,27.439 -22.09039,49.52939 -49.52939,49.52939 z" />
      <path
         id="rect31-3-6-7-5-3-5-6-2-9-1-2-8-7-5-2"
         style="fill:#8fbcbb;stroke:#8fbcbb;stroke-width:0.471228"
         d="m 305.84078,59.273486 v 49.529394 c 0,-27.439004 22.09039,-49.529394 49.52939,-49.529394 z" />
      <path
         id="rect31-3-6-7-5-3-5-6-2-9-1-2-8-3-2"
         style="fill:#8fbcbb;stroke:#8fbcbb;stroke-width:0.471228"
         d="m 355.37017,9.744096 v 49.52939 c 0,-27.439 22.09039,-49.52939 49.52939,-49.52939 z" />
      <path
         id="rect31-3-6-7-5-3-5-6-2-9-1-2-8-9-8"
         style="fill:#8fbcbb;stroke:#8fbcbb;stroke-width:0.471228"
         d="M 404.89956,59.273486 V 9.744096 c 0,27.439 -22.09039,49.52939 -49.52939,49.52939 z" />
      <path
         id="rect31-3-6-7-5-3-5-6-2-9-1-2-8-7-5-2-9"
         style="fill:#8fbcbb;stroke:#8fbcbb;stroke-width:0.471228"
         d="m 355.37017,59.273486 v 49.529394 c 0,-27.439004 22.09039,-49.529394 49.52939,-49.529394 z" />
      <path
         id="rect31-3-6-7-5-3-5-6-2-9-1-2-8-3-2-7"
         style="fill:#8fbcbb;stroke:#8fbcbb;stroke-width:0.471228"
         d="m 8.6668106,108.80263 v 49.52939 c 0,-27.439 22.0903904,-49.52939 49.5293934,-49.52939 z" />
      <path
         id="rect31-3-6-7-5-3-5-6-2-9-1-2-8-9-8-3"
         style="fill:#8fbcbb;stroke:#8fbcbb;stroke-width:0.471228"
         d="m 58.196204,158.33202 v -49.52939 c 0,27.439 -22.090393,49.52939 -49.5293934,49.52939 z" />
      <path
         id="rect31-3-6-7-5-3-5-6-2-9-1-2-8-7-5-2-9-6"
         style="fill:#8fbcbb;stroke:#8fbcbb;stroke-width:0.471228"
         d="m 8.6668106,158.33202 v 49.5294 c 0,-27.439 22.0903904,-49.5294 49.5293934,-49.5294 z" />
      <path
         id="rect31-3-6-7-5-3-5-6-2-9-1-2-8-3-2-7-1"
         style="fill:#8fbcbb;stroke:#8fbcbb;stroke-width:0.471228"
         d="m 58.196204,108.80263 v 49.52939 c 0,-27.439 22.09039,-49.52939 49.529386,-49.52939 z" />
      <path
         id="rect31-3-6-7-5-3-5-6-2-9-1-2-8-9-8-3-2"
         style="fill:#8fbcbb;stroke:#8fbcbb;stroke-width:0.471228"
         d="m 107.72559,158.33202 v -49.52939 c 0,27.439 -22.090386,49.52939 -49.529386,49.52939 z" />
      <path
         id="rect31-3-6-7-5-3-5-6-2-9-1-2-8-7-5-2-9-6-9"
         style="fill:#8fbcbb;stroke:#8fbcbb;stroke-width:0.471228"
         d="m 58.196204,158.33202 v 49.5294 c 0,-27.43901 22.09039,-49.5294 49.529386,-49.5294 z" />
      <path
         id="rect31-3-6-7-5-3-5-6-2-9-1-2-8-3-2-7-1-3"
         style="fill:#8fbcbb;stroke:#8fbcbb;stroke-width:0.471228"
         d="m 404.89947,108.80269 v 49.52939 c 0,-27.439 22.09039,-49.52939 49.52939,-49.52939 z" />
      <path
         id="rect31-3-6-7-5-3-5-6-2-9-1-2-8-7-0-6-0-56"
         style="fill:#5e81ac;stroke:#5e81ac;stroke-width:0.471228"
         d="m 206.78201,9.744096 v 49.52939 c 0,-27.439 22.09038,-49.52939 49.52938,-49.52939 z" />
      <path
         id="rect31-3-6-7-5-3-5-6-2-9-1-2-8-7-0-6-0-56-9"
         style="fill:#5e81ac;stroke:#5e81ac;stroke-width:0.471228"
         d="m 305.84253,207.86233 v 49.52939 c 0,-27.439 22.09039,-49.52939 49.52939,-49.52939 z" />
      <path
         id="rect31-2"
         style="fill:#5e81ac;stroke:#5e81ac;stroke-width:0.942454"
         d="m 157.25494,505.03407 c 27.439,0 49.5293,-22.0903 49.5293,-49.5293 v -49.52929 h -99.0586 v 99.05859 z" />
      <rect
         style="fill:#5e81ac;stroke:#5e81ac;stroke-width:0.942454"
         id="rect31-3-9"
         width="99.057549"
         height="99.057549"
         x="-503.96011"
         y="-505.035"
         transform="scale(-1)" />
      <rect
         style="fill:#81a1c1;stroke:#81a1c1;stroke-width:0.942454"
         id="rect31-3-6-1"
         width="99.057549"
         height="99.057549"
         x="-305.84253"
         y="-405.97742"
         transform="scale(-1)" />
      <path
         id="rect31-3-6-7-2"
         style="fill:#81a1c1;stroke:#81a1c1;stroke-width:0.942454"
         d="m 404.90134,405.97439 c -10e-4,-27.43809 -22.09095,-49.52734 -49.5293,-49.52734 27.439,0 49.5293,-22.0903 49.5293,-49.5293 h -99.0586 v 99.05664 z" />
      <path
         id="rect31-3-6-7-5-7"
         style="fill:#81a1c1;stroke:#81a1c1;stroke-width:0.942454"
         d="m 305.8431,505.03193 v -99.05664 h -49.52929 c -27.439,0 -49.5293,22.0903 -49.5293,49.5293 v 49.52734 z" />
      <rect
         style="fill:#81a1c1;stroke:#81a1c1;stroke-width:0.942454"
         id="rect31-3-6-7-5-3-0"
         width="99.057549"
         height="99.057549"
         x="-206.78317"
         y="-405.97421"
         transform="scale(-1)" />
      <path
         id="rect31-3-6-7-5-3-5-9"
         style="fill:#81a1c1;stroke:#81a1c1;stroke-width:0.942454"
         d="m 404.90169,505.03407 v -99.0586 H 355.3724 c -27.439,0 -49.5293,22.0903 -49.5293,49.5293 v 49.5293 z" />
      <rect
         style="fill:#5e81ac;stroke:#5e81ac;stroke-width:0.942454"
         id="rect31-3-6-7-5-3-5-6-3"
         width="99.057549"
         height="99.057549"
         x="-503.95898"
         y="-405.97519"
         transform="scale(-1)" />
      <path
         id="rect31-3-6-7-5-3-5-6-2-6"
         style="fill:#5e81ac;stroke:#5e81ac;stroke-width:0.942454"
         d="M 107.72787,405.97548 V 306.91689 H 58.19858 c -27.439,0 -49.5293002,22.0903 -49.5293002,49.5293 H 58.19858 c -27.439,0 -49.5293002,22.09029 -49.5293002,49.52929 z" />
      <path
         id="rect31-3-6-7-5-3-5-6-2-9-1-0"
         style="fill:#8fbcbb;stroke:#8fbcbb;stroke-width:0.942454"
         d="m 58.19635,505.03212 c 27.43894,0 49.52929,-22.09035 49.52929,-49.52929 V 405.97548 H 58.19635 c -27.43829,0 -49.5282502,22.08932 -49.5293002,49.52735 0,6.5e-4 0,10e-4 0,0.002 0.001,27.43803 22.0910102,49.52734 49.5293002,49.52734 z" />
      <path
         id="rect31-3-6-7-5-3-5-6-2-9-1-2-8-6"
         style="fill:#8fbcbb;stroke:#8fbcbb;stroke-width:0.471228"
         d="m 157.25494,405.97529 v 49.52939 c 0,-27.439 22.09039,-49.52939 49.52939,-49.52939 z" />
      <path
         id="rect31-3-6-7-5-3-5-6-2-9-1-2-8-7-2"
         style="fill:#5e81ac;stroke:#5e81ac;stroke-width:0.471228"
         d="m 355.37249,455.50468 v -49.52939 c 0,27.439 -22.09039,49.52939 -49.52939,49.52939 z" />
      <path
         id="rect31-3-6-7-5-3-5-6-2-9-1-2-8-7-7-6"
         style="fill:#5e81ac;stroke:#5e81ac;stroke-width:0.471228"
         d="m 355.37249,455.50468 h 49.52939 c -27.439,0 -49.52939,-22.09039 -49.52939,-49.52939 z" />
      <path
         id="rect31-3-6-7-5-3-5-6-2-9-1-2-8-7-7-4-1"
         style="fill:#5e81ac;stroke:#5e81ac;stroke-width:0.471228"
         d="m 355.37249,455.50468 v 49.52939 c 0,-27.439 22.09039,-49.52939 49.52939,-49.52939 z" />
      <path
         id="rect31-3-6-7-5-3-5-6-2-9-1-2-8-7-7-4-5-8"
         style="fill:#5e81ac;stroke:#5e81ac;stroke-width:0.471228"
         d="M 355.37249,455.50468 H 305.8431 c 27.439,0 49.52939,22.09039 49.52939,49.52939 z" />
      <path
         id="rect31-3-6-7-5-3-5-6-2-9-1-2-8-7-7-4-2-7"
         style="fill:#5e81ac;stroke:#5e81ac;stroke-width:0.471228"
         d="m 107.72564,405.97426 h 49.52939 c -27.439,0 -49.52939,-22.09039 -49.52939,-49.52939 z" />
      <path
         id="rect31-3-6-7-5-3-5-6-2-9-1-2-8-7-7-4-2-4-9"
         style="fill:#5e81ac;stroke:#5e81ac;stroke-width:0.471228"
         d="M 404.90139,505.03389 V 455.5045 c 0,27.439 -22.09039,49.52939 -49.52939,49.52939 z" />
      <path
         id="rect31-3-6-7-5-3-5-6-2-9-1-2-8-7-7-4-2-44-2"
         style="fill:#5e81ac;stroke:#5e81ac;stroke-width:0.471228"
         d="m 107.72564,306.9167 h 49.52939 c -27.439,0 -49.52939,22.09039 -49.52939,49.52939 z" />
      <path
         id="rect31-3-6-7-5-3-5-6-2-9-1-2-8-7-7-4-2-4-3-0"
         style="fill:#5e81ac;stroke:#5e81ac;stroke-width:0.471228"
         d="m 404.90139,405.97633 v 49.52939 c 0,-27.439 -22.09039,-49.52939 -49.52939,-49.52939 z" />
      <path
         id="rect31-3-6-7-5-3-5-6-2-9-1-2-8-7-7-4-2-4-7-2"
         style="fill:#81a1c1;stroke:#81a1c1;stroke-width:0.471228"
         d="m 58.19625,405.97548 v 49.52939 c 0,-27.439 22.09039,-49.52939 49.52939,-49.52939 z" />
      <path
         id="rect31-3-6-7-5-3-5-6-2-9-1-2-8-7-7-4-2-4-7-4-3"
         style="fill:#5e81ac;stroke:#5e81ac;stroke-width:0.471228"
         d="m 157.25503,356.44487 v -49.52939 c 0,27.439 -22.09039,49.52939 -49.52939,49.52939 z" />
      <path
         id="rect31-3-6-7-5-3-5-6-2-9-1-2-8-7-7-4-2-4-7-88-7"
         style="fill:#5e81ac;stroke:#5e81ac;stroke-width:0.471228"
         d="m 157.25503,356.44609 h -49.52939 c 27.439,0 49.52939,22.09039 49.52939,49.52939 z" />
      <path
         id="rect31-3-6-7-5-3-5-6-2-9-1-2-8-7-7-4-2-4-7-8-5"
         style="fill:#5e81ac;stroke:#5e81ac;stroke-width:0.471228"
         d="m 157.25503,306.9167 v 49.52939 c 0,-27.439 22.09039,-49.52939 49.52939,-49.52939 z" />
      <path
         id="rect31-3-6-7-5-3-5-6-2-9-1-2-8-7-7-4-2-4-7-8-6-9"
         style="fill:#5e81ac;stroke:#5e81ac;stroke-width:0.471228"
         d="m 157.25503,405.97426 h 49.52939 c -27.439,0 -49.52939,-22.09039 -49.52939,-49.52939 z" />
      <path
         id="rect31-3-6-7-5-3-5-6-2-9-1-2-8-7-7-4-2-5-2"
         style="fill:#5e81ac;stroke:#5e81ac;stroke-width:0.471228"
         d="m 305.8431,505.03407 h 49.52939 c -27.439,0 -49.52939,-22.09039 -49.52939,-49.52939 z" />
      <path
         id="rect31-3-6-7-5-3-5-6-2-9-1-2-8-7-3-2"
         style="fill:#8fbcbb;stroke:#8fbcbb;stroke-width:0.471228"
         d="m 503.9583,306.91675 v -49.52938 c 0,27.439 -22.09039,49.52938 -49.52939,49.52938 z" />
      <path
         id="rect31-3-6-7-5-3-5-6-2-9-1-2-8-7-47-8"
         style="fill:#5e81ac;stroke:#5e81ac;stroke-width:0.471228"
         d="m 305.8431,455.50468 v -49.52939 c 0,27.439 -22.09038,49.52939 -49.52938,49.52939 z" />
      <path
         id="rect31-3-6-7-5-3-5-6-2-9-1-2-8-7-0-9"
         style="fill:#5e81ac;stroke:#5e81ac;stroke-width:0.471228"
         d="m 256.31372,455.50468 v -49.52939 c 0,27.439 -22.09039,49.52939 -49.52939,49.52939 z" />
      <path
         id="rect31-3-6-7-5-3-5-6-2-9-1-2-8-7-0-6-7"
         style="fill:#5e81ac;stroke:#5e81ac;stroke-width:0.471228"
         d="m 256.31372,405.97529 v 49.52939 c 0,-27.439 22.09039,-49.52939 49.52938,-49.52939 z" />
      <path
         id="rect31-3-6-7-5-3-5-6-2-9-1-2-8-7-0-6-3-3"
         style="fill:#5e81ac;stroke:#5e81ac;stroke-width:0.471228"
         d="m 206.78433,455.50468 v 49.52939 c 0,-27.439 22.09039,-49.52939 49.52939,-49.52939 z" />
      <path
         id="rect31-3-6-7-5-3-5-6-2-9-1-2-8-7-0-2-6"
         style="fill:#5e81ac;stroke:#5e81ac;stroke-width:0.471228"
         d="m 256.31372,505.03407 v -49.52939 c 0,27.439 -22.09039,49.52939 -49.52939,49.52939 z" />
      <path
         id="rect31-3-6-7-5-3-5-6-2-9-1-2-8-7-0-6-0-1"
         style="fill:#5e81ac;stroke:#5e81ac;stroke-width:0.471228"
         d="m 256.31372,455.50468 v 49.52939 c 0,-27.439 22.09039,-49.52939 49.52938,-49.52939 z" />
      <path
         id="rect31-3-6-7-5-3-5-6-2-9-1-2-8-7-0-6-3-6-2"
         style="fill:#5e81ac;stroke:#5e81ac;stroke-width:0.471228"
         d="m 305.84256,306.91989 v 49.52939 c 0,-27.439 22.09039,-49.52939 49.52939,-49.52939 z" />
      <path
         id="rect31-3-6-7-5-3-5-6-2-9-1-2-8-7-0-2-1-9"
         style="fill:#5e81ac;stroke:#5e81ac;stroke-width:0.471228"
         d="m 355.37204,356.44705 v -49.52939 c 0,27.439 -22.09039,49.52939 -49.52939,49.52939 z" />
      <path
         id="rect31-3-6-7-5-3-5-6-2-9-1-2-8-7-0-6-0-5-3"
         style="fill:#5e81ac;stroke:#5e81ac;stroke-width:0.471228"
         d="m 355.37204,306.91766 v 49.52939 c 0,-27.439 22.09039,-49.52939 49.52939,-49.52939 z" />
      <path
         id="rect31-3-6-7-5-3-5-6-2-9-1-2-8-7-0-6-3-6-5-1"
         style="fill:#5e81ac;stroke:#5e81ac;stroke-width:0.471228"
         d="m 305.84265,356.44705 v 49.52939 c 0,-27.439 22.09039,-49.52939 49.52939,-49.52939 z" />
      <path
         id="rect31-3-6-7-5-3-5-6-2-9-1-2-8-7-4-9"
         style="fill:#8fbcbb;stroke:#8fbcbb;stroke-width:0.471228"
         d="m 454.42891,306.91675 v 49.52939 c 0,-27.439 22.09039,-49.52939 49.52939,-49.52939 z" />
      <path
         id="rect31-3-6-7-5-3-5-6-2-9-1-2-8-7-4-7-4"
         style="fill:#8fbcbb;stroke:#8fbcbb;stroke-width:0.471228"
         d="m 404.90188,455.50468 v 49.52939 c 0,-27.439 22.09038,-49.52939 49.52938,-49.52939 z" />
      <path
         id="rect31-3-6-7-5-3-5-6-2-9-1-2-8-7-4-7-8-7"
         style="fill:#8fbcbb;stroke:#8fbcbb;stroke-width:0.471228"
         d="m 454.43127,455.50468 v 49.52939 c 0,-27.439 22.09038,-49.52939 49.52938,-49.52939 z" />
      <path
         id="rect31-3-6-7-5-3-5-6-2-9-1-2-8-7-4-7-8-4-8"
         style="fill:#8fbcbb;stroke:#8fbcbb;stroke-width:0.471228"
         d="m 503.96012,405.97744 h -49.52939 c 27.439,0 49.52939,22.09038 49.52939,49.52938 z" />
      <path
         id="rect31-3-6-7-5-3-5-6-2-9-1-2-8-7-4-7-8-4-5-4"
         style="fill:#8fbcbb;stroke:#8fbcbb;stroke-width:0.471228"
         d="m 404.90257,405.97744 v 49.52939 c 0,-27.439 22.09038,-49.52939 49.52938,-49.52939 z" />
      <path
         id="rect31-3-6-7-5-3-5-6-2-9-1-2-8-7-4-7-8-4-5-0-5"
         style="fill:#8fbcbb;stroke:#8fbcbb;stroke-width:0.471228"
         d="m 454.43126,455.50468 h 49.52939 c -27.43901,0 -49.52939,-22.09038 -49.52939,-49.52938 z" />
      <path
         id="rect31-3-6-7-5-3-5-6-2-9-1-2-8-7-4-7-8-4-5-0-3-0"
         style="fill:#8fbcbb;stroke:#8fbcbb;stroke-width:0.471228"
         d="m 454.43126,455.50468 v -49.52939 c 0,27.43901 -22.09038,49.52939 -49.52938,49.52939 z" />
      <path
         id="rect31-3-6-7-5-3-5-6-2-9-1-2-8-7-4-7-8-4-5-0-3-6-3"
         style="fill:#8fbcbb;stroke:#8fbcbb;stroke-width:0.471228"
         d="M 256.31372,405.97529 V 356.4459 c 0,27.43901 -22.09038,49.52939 -49.52938,49.52939 z" />
      <path
         id="rect31-3-6-7-5-3-5-6-2-9-1-2-8-7-4-7-8-4-5-0-3-6-1-6"
         style="fill:#8fbcbb;stroke:#8fbcbb;stroke-width:0.471228"
         d="m 256.31372,405.97529 h 49.52939 c -27.439,0 -49.52939,-22.09038 -49.52939,-49.52938 z" />
      <path
         id="rect31-3-6-7-5-3-5-6-2-9-1-2-8-7-5-1"
         style="fill:#8fbcbb;stroke:#8fbcbb;stroke-width:0.471228"
         d="m 503.96065,505.03407 v -49.52939 c 0,27.439 -22.09039,49.52939 -49.52939,49.52939 z" />
      <path
         id="rect31-3-6-7-5-3-5-6-2-9-1-2-8-1-0"
         style="fill:#8fbcbb;stroke:#8fbcbb;stroke-width:0.471228"
         d="m 107.72555,405.97529 v 49.52939 c 0,-27.439 22.09039,-49.52939 49.52939,-49.52939 z" />
      <path
         id="rect31-3-6-7-5-3-5-6-2-9-1-2-8-7-5-9-6"
         style="fill:#8fbcbb;stroke:#8fbcbb;stroke-width:0.471228"
         d="m 454.43126,505.03407 v -49.52939 c 0,27.439 -22.09039,49.52939 -49.52939,49.52939 z" />
      <path
         id="rect31-3-6-7-5-3-5-6-2-9-1-2-8-9-3"
         style="fill:#8fbcbb;stroke:#8fbcbb;stroke-width:0.471228"
         d="m 157.25494,455.50468 v 49.52939 c 0,-27.439 22.09039,-49.52939 49.52939,-49.52939 z" />
      <path
         id="rect31-3-6-7-5-3-5-6-2-9-1-2-8-7-5-2-2"
         style="fill:#8fbcbb;stroke:#8fbcbb;stroke-width:0.471228"
         d="m 206.78433,455.50468 v -49.52939 c 0,27.439 -22.09039,49.52939 -49.52939,49.52939 z" />
      <path
         id="rect31-3-6-7-5-3-5-6-2-9-1-2-8-3-2-0"
         style="fill:#8fbcbb;stroke:#8fbcbb;stroke-width:0.471228"
         d="m 157.25494,505.03407 v -49.52939 c 0,27.439 -22.09039,49.52939 -49.52939,49.52939 z" />
      <path
         id="rect31-3-6-7-5-3-5-6-2-9-1-2-8-9-8-6"
         style="fill:#8fbcbb;stroke:#8fbcbb;stroke-width:0.471228"
         d="m 107.72555,455.50468 v 49.52939 c 0,-27.439 22.09039,-49.52939 49.52939,-49.52939 z" />
      <path
         id="rect31-3-6-7-5-3-5-6-2-9-1-2-8-7-5-2-9-1"
         style="fill:#8fbcbb;stroke:#8fbcbb;stroke-width:0.471228"
         d="m 157.25494,455.50468 v -49.52939 c 0,27.439 -22.09039,49.52939 -49.52939,49.52939 z" />
      <path
         id="rect31-3-6-7-5-3-5-6-2-9-1-2-8-3-2-7-5"
         style="fill:#8fbcbb;stroke:#8fbcbb;stroke-width:0.471228"
         d="m 503.9583,405.97554 v -49.52939 c 0,27.439 -22.09039,49.52939 -49.52939,49.52939 z" />
      <path
         id="rect31-3-6-7-5-3-5-6-2-9-1-2-8-9-8-3-5"
         style="fill:#8fbcbb;stroke:#8fbcbb;stroke-width:0.471228"
         d="m 454.42891,356.44615 v 49.52939 c 0,-27.439 22.09039,-49.52939 49.52939,-49.52939 z" />
      <path
         id="rect31-3-6-7-5-3-5-6-2-9-1-2-8-7-5-2-9-6-4"
         style="fill:#8fbcbb;stroke:#8fbcbb;stroke-width:0.471228"
         d="m 503.9583,356.44615 v -49.5294 c 0,27.439 -22.09039,49.5294 -49.52939,49.5294 z" />
      <path
         id="rect31-3-6-7-5-3-5-6-2-9-1-2-8-3-2-7-1-7"
         style="fill:#8fbcbb;stroke:#8fbcbb;stroke-width:0.471228"
         d="m 454.42891,405.97554 v -49.52939 c 0,27.439 -22.09039,49.52939 -49.52939,49.52939 z" />
      <path
         id="rect31-3-6-7-5-3-5-6-2-9-1-2-8-9-8-3-2-6"
         style="fill:#8fbcbb;stroke:#8fbcbb;stroke-width:0.471228"
         d="m 404.89952,356.44615 v 49.52939 c 0,-27.439 22.09039,-49.52939 49.52939,-49.52939 z" />
      <path
         id="rect31-3-6-7-5-3-5-6-2-9-1-2-8-7-5-2-9-6-9-5"
         style="fill:#8fbcbb;stroke:#8fbcbb;stroke-width:0.471228"
         d="m 454.42891,356.44615 v -49.5294 c 0,27.43901 -22.09039,49.5294 -49.52939,49.5294 z" />
      <path
         id="rect31-3-6-7-5-3-5-6-2-9-1-2-8-3-2-7-1-3-6"
         style="fill:#8fbcbb;stroke:#8fbcbb;stroke-width:0.471228"
         d="m 107.72564,405.97548 v -49.52939 c 0,27.439 -22.09039,49.52939 -49.52939,49.52939 z" />
      <path
         id="rect31-3-6-7-5-3-5-6-2-9-1-2-8-7-0-6-0-56-93"
         style="fill:#5e81ac;stroke:#5e81ac;stroke-width:0.471228"
         d="m 305.8431,505.03407 v -49.52939 c 0,27.439 -22.09038,49.52939 -49.52938,49.52939 z" />
      <path
         id="rect31-3-6-7-5-3-5-6-2-9-1-2-8-7-0-6-0-56-9-7"
         style="fill:#5e81ac;stroke:#5e81ac;stroke-width:0.471228"
         d="m 206.78258,306.91584 v -49.52939 c 0,27.439 -22.09039,49.52939 -49.52939,49.52939 z" />
    </g>
  </g>
</svg>
